<svg width="74" height="82" viewBox="0 0 74 82" fill="none" xmlns="http://www.w3.org/2000/svg">
<path d="M17.0622 22.0432H22.1441V40.9724L29.077 34.0396L29.0755 15.1118H10.1305L10.1294 52.9871L17.0622 46.0543V22.0432Z" fill="#050505"/>
<path d="M48.0231 34.0585L29.077 34.0575V34.0391L22.1441 40.9719V40.9903H41.0917V46.0722H17.0622V46.0538L10.1294 52.9866V53.0051L48.0231 53.004V34.0585Z" fill="#050505"/>
<path d="M56.1837 6.93248H56.2024L56.2035 20.1962H42.9387V20.1777L36.0073 27.1092V27.1276H63.1349V0H63.1165L56.1837 6.93248Z" fill="#050505"/>
<path d="M42.9387 6.93142L56.1837 6.93248L63.1165 0H36.0073V27.1092L42.9387 20.1777V6.93142Z" fill="#050505"/>
<path d="M0.000732422 78.2H0.89112V81.0143H1.3868V78.2H2.27719V77.7603H0.000732422V78.2Z" fill="#050505"/>
<path d="M7.2436 77.7603L6.06055 81.0143H6.5828L6.83259 80.2865H8.06702L8.31929 81.0143H8.83942L7.65637 77.7603H7.2436ZM6.97574 79.8493L7.44662 78.4274H7.45547L7.92636 79.8493H6.97574Z" fill="#050505"/>
<path d="M14.2745 79.6884H14.9374V79.8581C14.9346 80.0618 14.8705 80.2262 14.7454 80.3513C14.6203 80.4824 14.4619 80.5476 14.2699 80.5476C14.1537 80.5476 14.0541 80.5231 13.9709 80.4739C13.8862 80.4324 13.8175 80.3779 13.7657 80.3109C13.7016 80.2411 13.6594 80.1493 13.6385 80.0363C13.6148 79.9233 13.6027 79.7068 13.6027 79.3869C13.6027 79.0669 13.6148 78.849 13.6385 78.7328C13.6594 78.6226 13.7019 78.5326 13.7657 78.4628C13.8178 78.3958 13.8862 78.3402 13.9709 78.2952C14.0541 78.252 14.1537 78.229 14.2699 78.2261C14.4276 78.229 14.5615 78.2747 14.6717 78.3622C14.7773 78.4543 14.8503 78.5659 14.8903 78.697H15.4126C15.3605 78.4249 15.2354 78.1964 15.0377 78.0118C14.8396 77.8286 14.5838 77.7357 14.2699 77.7329C14.0141 77.7357 13.8004 77.7971 13.6293 77.9161C13.4553 78.0337 13.3289 78.1677 13.2498 78.3179C13.2009 78.3969 13.1641 78.5 13.1404 78.6279C13.118 78.7558 13.1071 79.0088 13.1071 79.3869C13.1071 79.7589 13.118 80.0104 13.1404 80.1412C13.1524 80.211 13.1673 80.2691 13.185 80.3151C13.2045 80.3598 13.2258 80.4066 13.2498 80.4558C13.3285 80.606 13.455 80.7386 13.6293 80.853C13.8004 80.972 14.0141 81.0344 14.2699 81.0404C14.6015 81.0344 14.8768 80.9221 15.0958 80.7035C15.313 80.4834 15.4246 80.2103 15.4306 79.8843V79.2214H14.2745V79.6884Z" fill="#050505"/>
<path d="M22.8269 77.7603H22.3337V81.0143H24.4118V80.548H22.8269V77.7603Z" fill="#050505"/>
<path d="M29.4831 77.7603H28.9899V81.0143H29.4831V77.7603Z" fill="#050505"/>
<path d="M36.2281 80.0725H36.2192L34.746 77.7603H34.2819V81.0143H34.7751V78.702H34.7839L36.2547 81.0143H36.7213V77.7603H36.2281V80.0725Z" fill="#050505"/>
<path d="M41.5226 81.0143H43.6003V80.548H42.0158V79.5928H43.3682V79.1552H42.0158V78.2265H43.6003V77.7603H41.5226V81.0143Z" fill="#050505"/>
<path d="M52.2961 79.1552H51.0082V77.7603H50.515V81.0143H51.0082V79.5928H52.2961V81.0143H52.7893V77.7603H52.2961V79.1552Z" fill="#050505"/>
<path d="M57.5907 81.0143H59.6684V80.548H58.0839V79.5928H59.4363V79.1552H58.0839V78.2265H59.6684V77.7603H57.5907V81.0143Z" fill="#050505"/>
<path d="M66.5031 78.6687C66.4942 78.3683 66.3862 78.1369 66.1796 77.9746C66.0085 77.8318 65.7874 77.7603 65.5167 77.7603H64.2468V81.0143H64.74V79.6239H65.3693L66.0411 81.0143H66.6282L65.8738 79.5701C66.2873 79.411 66.4971 79.1105 66.5031 78.6687ZM64.7397 79.1864V78.2H65.5117C65.6694 78.2 65.7899 78.2333 65.8735 78.3002C65.9791 78.376 66.0333 78.499 66.0365 78.6684C66.0365 78.8097 65.9911 78.9288 65.9004 79.0255C65.8083 79.1297 65.6697 79.1832 65.4851 79.1864H64.7397Z" fill="#050505"/>
<path d="M71.1481 81.0143H73.2258V80.548H71.6413V79.5928H72.9937V79.1552H71.6413V78.2265H73.2258V77.7603H71.1481V81.0143Z" fill="#050505"/>
<path d="M4.69429 71.6899C4.43918 72.1807 4.03137 72.4259 3.47085 72.4259C2.90997 72.4259 2.46849 72.2505 2.14678 71.9001C1.82506 71.5496 1.66421 71.0812 1.66421 70.4948C1.66421 69.9085 1.82506 69.4401 2.14678 69.0896C2.46849 68.7392 2.90997 68.5638 3.47085 68.5638C4.03172 68.5638 4.43954 68.8094 4.69429 69.3001H6.64442C6.41518 68.5993 6.0102 68.0512 5.43019 67.6557C4.85018 67.2607 4.18762 67.063 3.44179 67.063C2.47948 67.063 1.66527 67.3865 0.999161 68.0334C0.333054 68.6804 0 69.5006 0 70.4948C0 71.4891 0.333054 72.3096 0.999161 72.9566C1.66491 73.6036 2.47913 73.9267 3.44179 73.9267C4.18727 73.9267 4.85018 73.7294 5.43019 73.334C6.0102 72.9389 6.41483 72.3908 6.64442 71.6896L4.69429 71.6899Z" fill="#050505"/>
<path d="M14.574 67.0635C13.6085 67.0635 12.7925 67.387 12.1267 68.0339C11.4606 68.6809 11.1279 69.5011 11.1279 70.4953C11.1279 71.4895 11.461 72.3115 12.1267 72.9617C12.7925 73.6119 13.6067 73.9368 14.5694 73.9368C15.5317 73.9368 16.3441 73.6119 17.007 72.9617C17.67 72.3115 18.0012 71.4895 18.0012 70.4953C18.0012 69.5011 17.6714 68.6806 17.0116 68.0339C16.3519 67.387 15.5395 67.0635 14.574 67.0635ZM15.8548 71.9005C15.5331 72.251 15.1026 72.4263 14.5644 72.4263C14.0259 72.4263 13.5957 72.251 13.274 71.9005C12.9523 71.5501 12.7914 71.0817 12.7914 70.4953C12.7914 69.909 12.9523 69.4405 13.274 69.0901C13.5957 68.7397 14.0259 68.5644 14.5644 68.5644C15.103 68.5644 15.5331 68.7397 15.8548 69.0901C16.1765 69.4409 16.3374 69.9093 16.3374 70.4953C16.3377 71.0817 16.1765 71.5501 15.8548 71.9005Z" fill="#050505"/>
<path d="M26.6812 71.7858L24.7502 67.1592H22.8762V73.8699H24.511V70.0844L26.0693 73.8699H27.2832L28.8414 70.0844V73.8699H30.4762V67.1592H28.6026L26.6812 71.7858Z" fill="#050505"/>
<path d="M38.3817 67.1592H35.7335V73.8699H37.3683V71.26H38.3817C38.8469 71.26 39.2501 71.1916 39.5909 71.0545C39.9318 70.9174 40.1883 70.7406 40.3605 70.5241C40.6854 70.1035 40.848 69.667 40.848 69.2145C40.848 68.6473 40.6312 68.1629 40.1979 67.7615C39.7645 67.3597 39.1594 67.1592 38.3817 67.1592ZM38.9698 69.7974C38.8263 69.9441 38.6304 70.0171 38.382 70.0171H37.3687V68.4014H38.382C38.624 68.4014 38.8185 68.4779 38.9652 68.631C39.1119 68.7837 39.1849 68.98 39.1849 69.2188C39.1845 69.4583 39.113 69.6511 38.9698 69.7974Z" fill="#050505"/>
<path d="M49.3461 67.1401H47.3577L45.0253 73.87H46.7649L47.1377 72.7418H49.5467L49.9194 73.87H51.6686L49.3461 67.1401ZM47.549 71.4992L48.3423 69.1094L49.1357 71.4992H47.549Z" fill="#050505"/>
<path d="M60.6647 71.3749L57.9308 67.1401H56.296V73.87H57.9308V69.6352L60.6647 73.87H62.2991V67.1401H60.6647V71.3749Z" fill="#050505"/>
<path d="M71.4096 67.1592L70.1284 70.1896L68.838 67.1592H66.9835L69.3064 71.7093V73.8699H70.9408V71.7093L73.2641 67.1592H71.4096Z" fill="#050505"/>
</svg>
