<svg width="78" height="60" viewBox="0 0 78 60" fill="none" xmlns="http://www.w3.org/2000/svg">
<path d="M9.48815 57.6298V59.8499H9.0977V57.6298H8.50281V57.2627H10.0809V57.6298H9.48815Z" fill="#050505"/>
<path d="M15.2397 59.2214H14.1321L13.844 59.8496H13.4235L14.7036 57.1001L15.9384 59.8496H15.5111L15.2397 59.2214ZM15.0806 58.8546L14.6969 57.9749L14.2947 58.8546H15.0806Z" fill="#050505"/>
<path d="M20.9058 58.5023H21.9748V58.5877C21.9748 58.7819 21.9518 58.9541 21.9061 59.1036C21.8614 59.2421 21.7859 59.3718 21.68 59.4923C21.4398 59.7626 21.1344 59.8976 20.7637 59.8976C20.402 59.8976 20.092 59.7668 19.8337 59.5054C19.5757 59.2428 19.4468 58.9278 19.4468 58.5604C19.4468 58.1852 19.5779 57.8667 19.8404 57.6055C20.103 57.343 20.4225 57.2119 20.7988 57.2119C21.0008 57.2119 21.1896 57.2534 21.365 57.3359C21.5326 57.4185 21.6974 57.5528 21.8593 57.7381L21.5812 58.0045C21.3689 57.7218 21.1103 57.5807 20.8056 57.5807C20.532 57.5807 20.3025 57.675 20.1171 57.8638C19.9318 58.0491 19.839 58.2816 19.839 58.5608C19.839 58.8488 19.9425 59.0862 20.149 59.2729C20.3421 59.4462 20.5515 59.5327 20.7772 59.5327C20.9693 59.5327 21.1418 59.4678 21.2949 59.3385C21.4479 59.2077 21.5333 59.0515 21.5514 58.8694H20.9062V58.5023H20.9058Z" fill="#050505"/>
<path d="M27.8919 57.2627V59.4828H28.6526V59.8499H27.5014V57.263L27.8919 57.2627Z" fill="#050505"/>
<path d="M32.8444 57.2627V59.8495H32.454V57.2627H32.8444Z" fill="#050505"/>
<path d="M36.8974 59.8498V57.0869L38.7841 59.0604V57.2626H39.1746V60.0068L37.2882 58.0382V59.8495L36.8974 59.8498Z" fill="#050505"/>
<path d="M44.6529 57.6294H43.6159V58.2509H44.6228V58.6179H43.6159V59.4825H44.6529V59.8495H43.2254V57.2627H44.6529V57.6294Z" fill="#050505"/>
<path d="M50.9352 58.2746H52.051V57.2627H52.4414V59.8495H52.051V58.6417H50.9352V59.8495H50.5448V57.2627H50.9352V58.2746Z" fill="#050505"/>
<path d="M57.9202 57.6294H56.8831V58.2509H57.8901V58.6179H56.8831V59.4825H57.9202V59.8495H56.4927V57.2627H57.9202V57.6294Z" fill="#050505"/>
<path d="M62.7402 58.7473L63.541 59.8495H63.0633L62.3246 58.7905H62.2541V59.8495H61.8636V57.2627H62.3211C62.663 57.2627 62.9096 57.3268 63.0616 57.4554C63.2292 57.5986 63.3128 57.7871 63.3128 58.0216C63.3128 58.2048 63.2603 58.3625 63.1555 58.4939C63.0509 58.6261 62.9124 58.7104 62.7402 58.7473ZM62.2545 58.4507H62.3785C62.7484 58.4507 62.933 58.3093 62.933 58.0269C62.933 57.7623 62.753 57.6298 62.3933 57.6298H62.2541V58.4507H62.2545Z" fill="#050505"/>
<path d="M68.7887 57.6294H67.7517V58.2509H68.7586V58.6179H67.7517V59.4825H68.7887V59.8495H67.3612V57.2627H68.7887V57.6294Z" fill="#050505"/>
<path d="M3.30254 54.015C2.86922 54.015 2.45326 53.9388 2.05572 53.7868C1.65818 53.6348 1.30564 53.4159 0.99845 53.1296C0.69445 52.8437 0.4521 52.4947 0.2714 52.0822C0.0903466 51.6698 0 51.2053 0 50.688C0 50.1707 0.0885698 49.7016 0.26608 49.28C0.443591 48.8587 0.689127 48.4959 1.0034 48.1915C1.31413 47.8904 1.68085 47.6576 2.10425 47.4932C2.52765 47.3288 2.97977 47.2466 3.46093 47.2466C3.81914 47.2466 4.14333 47.2863 4.43351 47.3653C4.72369 47.4443 5.00006 47.5552 5.26296 47.6983L5.4727 47.3883H5.88264L5.9287 49.6959H5.50849C5.45393 49.4709 5.37207 49.2268 5.26259 48.9639C5.15346 48.701 5.02558 48.4782 4.87889 48.2957C4.7152 48.0891 4.52067 47.9268 4.29533 47.8099C4.06998 47.693 3.81241 47.6345 3.52258 47.6345C3.19165 47.6345 2.88339 47.7001 2.59852 47.8308C2.31365 47.9616 2.06706 48.155 1.85908 48.4105C1.66102 48.6571 1.50583 48.9707 1.39316 49.3508C1.28049 49.7314 1.22416 50.1555 1.22416 50.6242C1.22416 51.0381 1.28297 51.4176 1.4006 51.763C1.51823 52.1085 1.68652 52.4121 1.90478 52.6736C2.12303 52.9322 2.38168 53.1345 2.68001 53.2805C2.97869 53.4265 3.3121 53.4995 3.68094 53.4995C3.95731 53.4995 4.21171 53.4609 4.44378 53.3833C4.67586 53.3057 4.87711 53.2033 5.04789 53.0754C5.21832 52.9414 5.36854 52.7894 5.49822 52.6194C5.6279 52.4493 5.73349 52.2636 5.81569 52.0631L6.20012 52.2272C5.90675 52.8688 5.51735 53.3269 5.03265 53.6022C4.5483 53.8775 3.97148 54.015 3.30254 54.015Z" fill="#050505"/>
<path d="M16.9113 48.1546C17.2323 48.4526 17.4835 48.8122 17.6646 49.2331C17.8456 49.6544 17.936 50.1203 17.936 50.6309C17.936 51.1447 17.8439 51.6113 17.6593 52.0311C17.4747 52.4506 17.2185 52.8081 16.8908 53.1029C16.5729 53.3949 16.2041 53.6199 15.7839 53.7779C15.3637 53.9359 14.9162 54.0149 14.4414 54.0149C13.9358 54.0149 13.4685 53.9306 13.0397 53.7619C12.611 53.5933 12.2429 53.3584 11.9353 53.0572C11.6278 52.7624 11.3862 52.4042 11.2101 51.9833C11.034 51.5624 10.9461 51.1113 10.9461 50.6309C10.9461 50.1051 11.0382 49.636 11.2228 49.2239C11.4074 48.8119 11.6618 48.4554 11.9864 48.1546C12.3074 47.8566 12.6808 47.6288 13.106 47.4704C13.5315 47.3124 13.9762 47.2334 14.441 47.2334C14.9226 47.2334 15.3771 47.3138 15.8041 47.475C16.2314 47.6362 16.6006 47.8626 16.9113 48.1546ZM16.1478 52.7426C16.3391 52.4659 16.4783 52.1527 16.5655 51.803C16.6527 51.4533 16.6962 51.0624 16.6962 50.6309C16.6962 50.1869 16.6477 49.7795 16.5503 49.4085C16.4528 49.0375 16.31 48.7215 16.1223 48.46C15.9345 48.2017 15.6985 48.0001 15.4151 47.8556C15.1316 47.711 14.807 47.6387 14.4414 47.6387C14.0315 47.6387 13.6828 47.7223 13.3958 47.8896C13.1088 48.0568 12.875 48.2804 12.6939 48.5599C12.5231 48.8274 12.396 49.1407 12.312 49.4996C12.2284 49.8585 12.1866 50.2355 12.1866 50.6305C12.1866 51.0685 12.2308 51.4635 12.3198 51.8164C12.4087 52.1693 12.5487 52.4822 12.74 52.7561C12.9246 53.0236 13.1567 53.2326 13.4369 53.3832C13.7172 53.5338 14.052 53.6089 14.4414 53.6089C14.807 53.6089 15.1366 53.5331 15.4303 53.3807C15.724 53.2291 15.9632 53.0161 16.1478 52.7426Z" fill="#050505"/>
<path d="M31.7988 53.8594H28.5859V53.5356C28.7021 53.5327 28.8517 53.5218 29.0341 53.5037C29.217 53.4856 29.3424 53.4597 29.4108 53.4261C29.5167 53.3683 29.5943 53.3021 29.6439 53.2277C29.6935 53.1533 29.7183 53.0597 29.7183 52.9471V48.2404H29.6414L27.1612 53.7542H26.9051L24.5425 48.1263H24.4759V51.9894C24.4759 52.3632 24.5025 52.6477 24.5553 52.8422C24.6081 53.0367 24.6892 53.1767 24.7987 53.2617C24.8738 53.3255 25.0293 53.3864 25.265 53.4442C25.5006 53.5019 25.6544 53.5324 25.7263 53.5352V53.8591H22.7901V53.5352C22.9439 53.5232 23.1054 53.5002 23.2744 53.4669C23.4434 53.4335 23.5742 53.3832 23.6667 53.3163C23.7861 53.2312 23.8683 53.1005 23.9126 52.924C23.9568 52.7479 23.9792 52.4528 23.9792 52.0393V48.7283C23.9792 48.5366 23.9537 48.3803 23.9023 48.2585C23.8509 48.1369 23.7776 48.0381 23.6819 47.9619C23.576 47.8797 23.4463 47.8191 23.2925 47.7794C23.1387 47.7397 22.9867 47.7171 22.8365 47.711V47.3872H25.316L27.399 52.2448L29.1773 48.1812C29.2421 48.032 29.2974 47.8761 29.3438 47.7135C29.3899 47.5509 29.4147 47.4421 29.4182 47.3872H31.7893V47.711C31.6936 47.7142 31.5714 47.7277 31.4229 47.7521C31.2745 47.7766 31.1657 47.7993 31.0977 47.8205C30.9814 47.857 30.9028 47.918 30.862 48.003C30.8209 48.088 30.8004 48.1808 30.8004 48.2811V52.9467C30.8004 53.053 30.8209 53.143 30.862 53.216C30.9031 53.289 30.9814 53.3528 31.0977 53.4077C31.1593 53.4382 31.2684 53.4661 31.4258 53.492C31.5827 53.5179 31.7074 53.5324 31.7999 53.5352V53.8594H31.7988Z" fill="#050505"/>
<path d="M42.5402 48.9842C42.5402 49.3219 42.4661 49.6206 42.3173 49.8803C42.1688 50.1403 41.963 50.3554 41.6997 50.5255C41.44 50.6959 41.1548 50.8203 40.8441 50.8993C40.533 50.9783 40.2035 51.018 39.8548 51.018H39.0403V52.9791C39.0403 53.0854 39.0597 53.1789 39.0994 53.2597C39.1388 53.3401 39.2199 53.4018 39.3428 53.4443C39.4041 53.4656 39.5126 53.4854 39.6681 53.5035C39.8237 53.5215 39.9661 53.5325 40.0961 53.5354V53.8592H36.9753V53.5354C37.0575 53.5294 37.1762 53.5187 37.3314 53.5035C37.487 53.4882 37.5954 53.4684 37.6567 53.4443C37.7591 53.405 37.8335 53.3472 37.8795 53.271C37.9256 53.1952 37.9486 53.0978 37.9486 52.9791V48.3089C37.9486 48.2026 37.9316 48.1066 37.8973 48.0216C37.8633 47.9365 37.7828 47.8727 37.6563 47.8299C37.5263 47.7905 37.3973 47.7622 37.2694 47.7456C37.1411 47.7289 37.0313 47.7176 36.9388 47.7115V47.3877H40.2595C40.9358 47.3877 41.485 47.533 41.907 47.8231C42.3293 48.114 42.5402 48.5009 42.5402 48.9842ZM40.9826 50.0879C41.0988 49.9419 41.1753 49.7907 41.2133 49.634C41.2508 49.4774 41.2696 49.3368 41.2696 49.212C41.2696 49.0388 41.2466 48.8623 41.2005 48.6831C41.1545 48.5038 41.0751 48.3472 40.9624 48.2132C40.8427 48.0705 40.6857 47.9596 40.4908 47.8802C40.2959 47.8012 40.0536 47.7615 39.7631 47.7615H39.0406V50.6211H39.5632C39.9324 50.6211 40.2318 50.5701 40.4625 50.4684C40.6928 50.3671 40.8664 50.2399 40.9826 50.0879Z" fill="#050505"/>
<path d="M54.3529 53.8596H51.3307V53.5357C51.5971 53.5205 51.8182 53.49 51.9943 53.4447C52.17 53.399 52.2582 53.343 52.2582 53.276C52.2582 53.2488 52.2547 53.2151 52.248 53.1758C52.2412 53.1364 52.231 53.1013 52.2175 53.0709L51.6152 51.6207H49.0627C48.967 51.8336 48.8891 52.0189 48.8292 52.177C48.7693 52.335 48.7155 52.481 48.6676 52.6149C48.6233 52.7456 48.5925 52.8519 48.5751 52.9341C48.5581 53.0163 48.5496 53.0833 48.5496 53.1347C48.5496 53.2562 48.6573 53.3504 48.8724 53.4174C49.0875 53.4844 49.3302 53.5237 49.6002 53.5361V53.86H46.8617V53.5361C46.9506 53.5301 47.0615 53.5127 47.1947 53.4837C47.328 53.4546 47.4371 53.416 47.5229 53.3675C47.6593 53.2853 47.7655 53.1995 47.8407 53.1099C47.9158 53.0202 47.9891 52.8962 48.061 52.7382C48.4263 51.9265 48.8296 51.0141 49.2703 50.0018C49.7111 48.9892 50.1037 48.0878 50.4488 47.2974H50.8587L53.2825 52.8796C53.3339 52.9983 53.392 53.0939 53.4569 53.1669C53.5217 53.2399 53.6124 53.3115 53.7283 53.3813C53.8069 53.4238 53.9093 53.4596 54.0358 53.4883C54.1623 53.5173 54.2682 53.5333 54.3533 53.5361L54.3529 53.8596ZM51.4274 51.2147L50.3258 48.7033L49.2402 51.2147H51.4274Z" fill="#050505"/>
<path d="M66.2734 47.7121C66.1777 47.7153 66.0307 47.7394 65.8326 47.7851C65.6346 47.8308 65.4928 47.878 65.4075 47.9265C65.2845 48.0027 65.2016 48.1487 65.1591 48.3644C65.1162 48.5802 65.0949 48.8541 65.0949 49.1854V53.924H64.6492L60.2423 48.6291V51.9674C60.2423 52.3416 60.2689 52.6289 60.3217 52.8295C60.3744 53.03 60.4556 53.1732 60.5651 53.2582C60.6437 53.3252 60.806 53.3875 61.0519 53.4453C61.2978 53.503 61.4601 53.5335 61.5387 53.5364V53.8602H58.5565V53.5364C58.6486 53.5303 58.8041 53.5006 59.0227 53.4474C59.2414 53.3943 59.3781 53.3464 59.4327 53.3036C59.5521 53.2185 59.6343 53.0885 59.6786 52.9135C59.7229 52.7388 59.7452 52.4401 59.7452 52.0174V48.8296C59.7452 48.6897 59.7179 48.5501 59.6633 48.4102C59.6088 48.2702 59.5351 48.1625 59.443 48.0863C59.32 47.986 59.1535 47.8999 58.9434 47.8287C58.7333 47.7572 58.5632 47.7185 58.4335 47.7125V47.3887H60.5109L64.5978 52.3225V49.2446C64.5978 48.8676 64.5706 48.5781 64.516 48.3758C64.4614 48.1738 64.3828 48.0392 64.2804 47.9722C64.1847 47.9145 64.0285 47.8581 63.8116 47.8036C63.5948 47.7486 63.4297 47.7185 63.317 47.7125V47.3887H66.2738V47.7121H66.2734Z" fill="#050505"/>
<path d="M77.2915 47.7117C77.2334 47.7149 77.1412 47.7355 77.0147 47.7734C76.8883 47.8117 76.7979 47.8485 76.743 47.885C76.6098 47.958 76.5194 48.0143 76.4712 48.0537C76.4234 48.0933 76.3309 48.1965 76.1945 48.3637C75.9281 48.6982 75.6822 49.0372 75.4568 49.3806C75.2315 49.7242 74.9495 50.1604 74.6114 50.6894C74.4849 50.8839 74.4013 51.0405 74.3602 51.1592C74.3191 51.2779 74.2986 51.4497 74.2986 51.6747V52.9106C74.2986 53.0201 74.3234 53.115 74.373 53.1955C74.4226 53.2762 74.5069 53.3407 74.6267 53.3893C74.6986 53.4137 74.8265 53.4435 75.0111 53.4782C75.1957 53.5133 75.3442 53.532 75.4568 53.5352V53.8591H72.0544V53.5352C72.15 53.5292 72.2932 53.5179 72.4848 53.5012C72.6762 53.4846 72.8094 53.4626 72.8845 53.435C73.0075 53.3892 73.0921 53.3272 73.1382 53.2479C73.1843 53.1689 73.2073 53.0714 73.2073 52.9559V51.3824C73.2073 51.3339 73.174 51.2449 73.1074 51.1156C73.0408 50.9863 72.9614 50.8428 72.8693 50.6848C72.6645 50.3322 72.437 49.9503 72.1879 49.54C71.9385 49.1297 71.7217 48.7782 71.5371 48.4863C71.4244 48.313 71.3245 48.1823 71.2373 48.0941C71.1502 48.0058 71.0502 47.9282 70.9376 47.8616C70.8554 47.8159 70.7572 47.7812 70.6428 47.7567C70.5283 47.7323 70.4249 47.7171 70.3328 47.711V47.3872H73.4358V47.711C73.0875 47.7171 72.8413 47.7383 72.6978 47.7748C72.5543 47.8113 72.4827 47.8627 72.4827 47.9293C72.4827 47.9474 72.493 47.9793 72.5135 48.025C72.5341 48.0703 72.5631 48.1281 72.6004 48.1979C72.6446 48.2769 72.6974 48.3672 72.7587 48.4693C72.82 48.5709 72.8781 48.6691 72.9327 48.7633C73.0929 49.034 73.2565 49.3037 73.4234 49.5726C73.5903 49.8415 73.8086 50.1919 74.0778 50.6235C74.6139 49.8546 75.0224 49.2551 75.3041 48.825C75.5858 48.3949 75.7268 48.1376 75.7268 48.0526C75.7268 47.9828 75.6978 47.9268 75.6396 47.8843C75.5815 47.8418 75.5047 47.8085 75.409 47.784C75.3098 47.7599 75.2021 47.744 75.0862 47.7362C74.97 47.7288 74.8623 47.7203 74.7634 47.711V47.3872H77.2915V47.7117Z" fill="#050505"/>
<path d="M38.6671 27.0483H14.6313L14.6522 27.0721L26.6485 40.5973L38.6466 27.0721L38.6671 27.0483Z" fill="#050505"/>
<path d="M62.6601 27.0483H38.6243L38.6466 27.0721L50.6429 40.5973L62.6396 27.0721L62.6601 27.0483Z" fill="#050505"/>
<path d="M26.6705 13.5234H2.63501L14.6313 27.0486L14.6522 27.0723L14.6728 27.0486L26.6485 13.5472H26.65L26.6705 13.5234Z" fill="#050505"/>
<path d="M50.6638 13.5234H26.628L26.6485 13.5472H26.65L38.6243 27.0486H38.6257L38.6466 27.0723L38.6672 27.0486L50.6429 13.5472L50.6638 13.5234Z" fill="#050505"/>
<path d="M74.6568 13.5234H50.621L50.6429 13.5472L62.6187 27.0486L62.6396 27.0723L62.6602 27.0486L74.6568 13.5234Z" fill="#050505"/>
<path d="M38.6671 0H14.6313L26.628 13.5234L26.6485 13.5471L26.6691 13.5234H26.6705L38.6466 0.023388L38.6671 0Z" fill="#050505"/>
<path d="M62.6601 0H38.6243L38.6466 0.023388L50.6209 13.5234H50.6223L50.6429 13.5471L50.6638 13.5234L62.6601 0Z" fill="#050505"/>
<path d="M38.6243 27.0483L26.6499 13.5469H26.6485L14.6727 27.0483H38.6243Z" fill="#050505"/>
<path d="M62.6186 27.0483L50.6429 13.5469L38.6671 27.0483H62.6186Z" fill="#050505"/>
<path d="M50.6209 13.5234L38.6466 0.0234375L26.6705 13.5234H50.6209Z" fill="#050505"/>
<path d="M50.6638 13.5234H26.6279L26.6485 13.5472H26.6499L38.6243 27.0486H38.6257L38.6466 27.0723L38.6671 27.0486L50.6429 13.5472L50.6638 13.5234Z" fill="#050505"/>
</svg>
