<svg width="61" height="72" viewBox="0 0 61 72" fill="none" xmlns="http://www.w3.org/2000/svg">
<path d="M34.8213 38.9524L30.2326 41.603H30.2315L24.345 45.0016L19.7527 42.351V7.14648L5.90161 15.1444L0.0164795 18.5429V11.7458L5.90161 8.34725L19.7527 0.350766L20.3622 0L25.6407 3.04745V38.9513L30.2315 41.602L34.8213 38.9524Z" fill="#050505"/>
<path d="M60.4455 11.7458V18.543L54.5579 15.1444L40.7068 7.14648V42.3499L36.117 45.0005L30.4661 48.2637L30.2315 48.4002L20.3622 54.0971L0.0164795 42.351V18.543L5.90161 15.1444V38.9513L20.3622 47.3011L24.345 45.0016L30.2315 41.603H30.2326L34.8213 38.9524V3.04745L40.0998 0L60.4455 11.7458Z" fill="#050505"/>
<path d="M60.4457 18.5431V42.3511L40.1 54.0973L30.2317 48.4003L30.4662 48.2639L36.1172 45.0007L40.7069 42.3501L36.1182 45.0017L40.1 47.3012L54.5581 38.9515V15.1445L60.4457 18.5431Z" fill="#050505"/>
<path d="M13.5751 69.6794H14.1654V71.3596H14.587V69.6794H15.1776V69.2578H13.5751V69.6794Z" fill="#050505"/>
<path d="M17.5179 69.2578L16.7583 71.3596H17.2047L17.418 70.7718H18.0643L18.2779 71.3596H18.7244L17.9647 69.2578H17.5179ZM17.5704 70.3502L17.7394 69.8761L17.9112 70.3502H17.5704Z" fill="#050505"/>
<path d="M22.068 70.2674H21.6467H21.4387V70.689H21.9432C21.8267 70.8414 21.6439 70.9413 21.4387 70.9413C21.0894 70.9413 20.8066 70.6585 20.8066 70.3092C20.8066 69.9627 21.0894 69.6799 21.4387 69.6799C21.6024 69.6799 21.7548 69.7437 21.8657 69.8489L22.1622 69.5496C21.9737 69.3692 21.7186 69.2583 21.4387 69.2583C20.8591 69.2583 20.3878 69.7299 20.3878 70.3092C20.3878 70.8888 20.8594 71.3601 21.4387 71.3601C22.018 71.3601 22.4896 70.8888 22.4896 70.3092C22.4896 70.2954 22.4868 70.2816 22.4868 70.2677L22.068 70.2674Z" fill="#050505"/>
<path d="M25.5672 69.2578H25.1484V71.3596H26.3325V70.9383H25.5672V69.2578Z" fill="#050505"/>
<path d="M28.609 69.2578H28.1902V71.3596H28.609V69.2578Z" fill="#050505"/>
<path d="M31.7973 70.6609L30.9573 69.2578H30.4666V71.3596H30.885V69.9593L31.7279 71.3596H32.2161V69.2578H31.7973V70.6609Z" fill="#050505"/>
<path d="M34.0735 71.3596H35.3409V70.9383H34.4923V70.5195H35.3409V70.0979H34.4923V69.6794H35.3409V69.2578H34.0735V71.3596Z" fill="#050505"/>
<path d="M39.2646 70.0979H38.4992V69.2578H38.0804V71.3596H38.4992V70.5195H39.2646V71.3596H39.683V69.2578H39.2646V70.0979Z" fill="#050505"/>
<path d="M41.5406 71.3596H42.8077V70.9383H41.9594V70.5195H42.8077V70.0979H41.9594V69.6794H42.8077V69.2578H41.5406V71.3596Z" fill="#050505"/>
<path d="M45.9242 69.8899C45.9242 69.5406 45.6442 69.2578 45.2945 69.2578H44.6653V71.3596H45.0841V70.5195H45.1673L45.5472 71.3596H46.0074L45.5943 70.4444C45.7913 70.3392 45.9242 70.1284 45.9242 69.8899ZM45.2949 70.0979H45.0841V69.6791H45.2949C45.4115 69.6791 45.5057 69.7733 45.5057 69.8899C45.5054 70.0036 45.4111 70.0979 45.2949 70.0979Z" fill="#050505"/>
<path d="M47.8234 71.3596H49.0907V70.9383H48.2422V70.5195H49.0907V70.0979H48.2422V69.6794H49.0907V69.2578H47.8234V71.3596Z" fill="#050505"/>
<path d="M3.21645 61.6646C3.71709 61.6646 4.18408 61.8598 4.52351 62.1822L5.43161 61.2656C4.85444 60.7139 4.07353 60.3745 3.21645 60.3745C1.44276 60.3745 0 61.8173 0 63.591C0 65.3646 1.44276 66.8074 3.21645 66.8074C4.07353 66.8074 4.85444 66.468 5.43161 65.9163L4.52351 65.0082C4.18408 65.3221 3.71709 65.5174 3.21645 65.5174C2.14713 65.5174 1.28155 64.6603 1.28155 63.591C1.28155 62.5305 2.14713 61.6646 3.21645 61.6646Z" fill="#050505"/>
<path d="M12.2132 60.3745C10.4395 60.3745 8.9967 61.8173 8.9967 63.591C8.9967 65.3646 10.4395 66.8074 12.2132 66.8074C13.9868 66.8074 15.43 65.3646 15.43 63.591C15.4296 61.8173 13.9868 60.3745 12.2132 60.3745ZM12.2132 65.5262C11.1438 65.5262 10.2783 64.6606 10.2783 63.591C10.2783 62.5301 11.1438 61.6642 12.2132 61.6642C13.274 61.6642 14.1399 62.5298 14.1399 63.591C14.1395 64.6606 13.274 65.5262 12.2132 65.5262Z" fill="#050505"/>
<path d="M25.9452 66.8078V60.3745H24.5617L22.6859 65.0766L20.8021 60.3745H19.4185V66.8078H20.7V63.5913L21.9901 66.8078H23.3737L24.6637 63.5913V66.8078H25.9452Z" fill="#050505"/>
<path d="M31.7333 60.3745H29.9341V66.8078H31.2156V64.2362H31.7418C32.8026 64.2362 33.6597 63.3706 33.6597 62.3098C33.66 61.2405 32.803 60.3745 31.7333 60.3745ZM31.7333 62.9461H31.2156V61.6646H31.7333C32.0897 61.6646 32.3781 61.953 32.3781 62.3094C32.3785 62.6577 32.0897 62.9461 31.7333 62.9461Z" fill="#050505"/>
<path d="M39.1256 60.3745L36.8003 66.8078H38.1669L38.8202 65.0086H40.7976L41.451 66.8078H42.8176L40.4922 60.3745H39.1256ZM39.2869 63.7185L39.8045 62.2673L40.3307 63.7185H39.2869Z" fill="#050505"/>
<path d="M50.7106 64.6691L48.139 60.3745H46.6371V66.8078H47.9186V62.522L50.4987 66.8078H51.9922V60.3745H50.7106V64.6691Z" fill="#050505"/>
<path d="M59.0199 60.3745L58.137 62.1571L57.2459 60.3745H55.8116L57.4921 63.744V66.8078H58.7737V63.744L60.4542 60.3745H59.0199Z" fill="#050505"/>
</svg>
