<svg width="57" height="74" viewBox="0 0 57 74" fill="none" xmlns="http://www.w3.org/2000/svg">
<path d="M24.9208 35.9156C24.045 35.8614 23.1578 35.8341 22.256 35.8341C18.309 35.8341 14.2606 36.3503 10.2197 37.3697C8.84709 37.7155 7.50424 38.1109 6.19505 38.5556V9.85804C8.37904 8.81671 10.7671 7.96033 13.2391 7.33674C16.294 6.56717 19.3269 6.17672 22.256 6.17672C23.1741 6.17672 24.0644 6.21357 24.9258 6.29045V6.39428C25.9079 6.67702 26.9394 6.9105 28.0143 7.09226C29.0089 7.26021 30.0403 7.38386 31.1029 7.46039V1.1625C28.4668 0.401438 25.4686 0 22.2564 0C18.922 0 15.3579 0.432267 11.7298 1.34781C7.3356 2.45468 3.35772 4.14084 0.0186768 6.18806V48.1999C3.35772 46.1517 7.3356 44.4669 11.7298 43.3586C15.3579 42.4445 18.922 42.0108 22.2564 42.0108C23.1631 42.0108 24.0528 42.0431 24.9212 42.1072L24.9208 35.9156Z" fill="#050505"/>
<path d="M44.294 6.20886C40.6659 7.12299 37.1019 7.55667 33.7674 7.55667C32.8607 7.55667 31.9711 7.52442 31.1026 7.46029C30.0404 7.38375 29.0086 7.2601 28.0141 7.09215C26.9395 6.91039 25.9077 6.67691 24.9255 6.39417C24.9241 6.39417 24.922 6.39311 24.9206 6.39311V35.9158V42.1075V48.4053C27.5567 49.1664 30.5538 49.5678 33.7671 49.5678C37.1001 49.5678 40.6652 49.1356 44.2937 48.22C48.6879 47.1132 52.6647 45.427 56.0048 43.3798V1.36719C52.6647 3.41547 48.6882 5.10057 44.294 6.20886ZM49.8284 39.7095C47.6444 40.7508 45.2563 41.6068 42.7832 42.2307C39.7294 43.0003 36.6965 43.3908 33.7674 43.3908C32.8494 43.3908 31.959 43.3536 31.0977 43.277V43.1732C31.0987 43.1732 31.1012 43.1743 31.1026 43.1743V13.6515C31.9785 13.7058 32.8657 13.733 33.7674 13.733C37.713 13.733 41.7628 13.2168 45.8034 12.1974C47.176 11.8516 48.5189 11.4552 49.828 11.0116L49.8284 39.7095Z" fill="#050505"/>
<path d="M4.46717 66.1801V66.7732C4.46717 67.0698 4.41085 67.3507 4.29853 67.6157C4.18586 67.8811 4.03102 68.1167 3.83367 68.3233C3.63597 68.5302 3.40424 68.6939 3.13921 68.8154C2.87419 68.9366 2.58861 68.9976 2.28319 68.9976C2.02241 68.9976 1.75739 68.9614 1.48776 68.8895C1.21813 68.8176 0.975425 68.6918 0.759649 68.5121C0.543872 68.3325 0.366365 68.1011 0.22712 67.8181C0.0875212 67.535 0.0180664 67.1732 0.0180664 66.7328V61.4482C0.0180664 61.1336 0.071933 60.8416 0.179998 60.572C0.287709 60.3024 0.44042 60.0689 0.638481 59.8712C0.836187 59.6735 1.07216 59.5186 1.34605 59.406C1.62028 59.2936 1.92356 59.2373 2.25626 59.2373C2.90324 59.2373 3.42905 59.4485 3.83367 59.8708C4.03138 60.0777 4.18622 60.3226 4.29853 60.6057C4.41085 60.8888 4.46717 61.1967 4.46717 61.529V62.0683H3.09209V61.6098C3.09209 61.3402 3.01557 61.1067 2.86286 60.909C2.7098 60.7113 2.50323 60.6124 2.24281 60.6124C1.90126 60.6124 1.67414 60.718 1.56183 60.9292C1.44951 61.1403 1.39351 61.4078 1.39351 61.7313V66.6382C1.39351 66.9167 1.45412 67.1505 1.57564 67.3394C1.69682 67.5282 1.91471 67.6225 2.22934 67.6225C2.31898 67.6225 2.41571 67.6069 2.51917 67.5753C2.62262 67.5438 2.719 67.4924 2.80899 67.4202C2.88977 67.3482 2.95746 67.2494 3.01132 67.1236C3.06517 66.9978 3.09209 66.8405 3.09209 66.6517V66.1797L4.46717 66.1801Z" fill="#050505"/>
<path d="M8.20123 61.5827C8.20123 61.1965 8.26857 60.8546 8.40356 60.558C8.5382 60.2615 8.71818 60.0145 8.94282 59.8165C9.15859 59.6276 9.40341 59.4841 9.67765 59.3853C9.95189 59.2864 10.2283 59.2368 10.5068 59.2368C10.7852 59.2368 11.0616 59.2864 11.3359 59.3853C11.6097 59.4841 11.8592 59.628 12.0842 59.8165C12.2999 60.0142 12.4749 60.2615 12.6099 60.558C12.7446 60.8546 12.8123 61.1965 12.8123 61.5827V66.6515C12.8123 67.0561 12.7449 67.4019 12.6099 67.6896C12.4753 67.9773 12.2999 68.2154 12.0842 68.4039C11.8595 68.6016 11.6097 68.7501 11.3359 68.849C11.0616 68.9478 10.7852 68.9974 10.5068 68.9974C10.2279 68.9974 9.95153 68.9478 9.67765 68.849C9.40341 68.7501 9.15859 68.602 8.94282 68.4039C8.71818 68.2151 8.53855 67.9773 8.40356 67.6896C8.26892 67.4019 8.20123 67.0561 8.20123 66.6515V61.5827ZM9.57668 66.6515C9.57668 66.9842 9.66881 67.229 9.85305 67.3863C10.0369 67.5437 10.2552 67.6223 10.5068 67.6223C10.7583 67.6223 10.9762 67.5437 11.1605 67.3863C11.3444 67.2294 11.4368 66.9842 11.4368 66.6515V61.5827C11.4368 61.2504 11.3444 61.0052 11.1605 60.8479C10.9762 60.6909 10.758 60.6119 10.5068 60.6119C10.2548 60.6119 10.0369 60.6906 9.85305 60.8479C9.66881 61.0052 9.57668 61.25 9.57668 61.5827V66.6515Z" fill="#050505"/>
<path d="M16.7214 68.9167V59.3184H18.0427L19.8086 64.4006H19.8355L21.5879 59.3184H22.9226V68.9167H21.5475V63.0794H21.5206L20.159 67.2046H19.4713L18.1231 63.0794H18.0962V68.9167H16.7214Z" fill="#050505"/>
<path d="M26.9132 68.9167V59.3184H28.9757C29.353 59.3184 29.6854 59.368 29.9734 59.4668C30.2611 59.5657 30.5215 59.7411 30.7554 59.9926C30.9889 60.2442 31.1508 60.5386 31.2408 60.8756C31.3304 61.2125 31.3758 61.6689 31.3758 62.2439C31.3758 62.6755 31.351 63.0394 31.3017 63.3359C31.2521 63.6325 31.1465 63.911 30.985 64.1717C30.7961 64.4864 30.5446 64.7312 30.2299 64.9066C29.9153 65.082 29.5018 65.1695 28.9898 65.1695H28.289V68.917L26.9132 68.9167ZM28.2883 60.6123V63.8748H28.9487C29.2272 63.8748 29.443 63.8344 29.5957 63.7536C29.7484 63.6729 29.8607 63.5605 29.9327 63.4167C30.0046 63.2821 30.0471 63.1155 30.0609 62.9178C30.0744 62.7201 30.0811 62.4997 30.0811 62.257C30.0811 62.0324 30.0765 61.8191 30.0677 61.6168C30.0584 61.4145 30.018 61.2373 29.9461 61.0843C29.8742 60.9315 29.7661 60.8146 29.6226 60.7338C29.4788 60.6531 29.2722 60.6127 29.0026 60.6127L28.2883 60.6123Z" fill="#050505"/>
<path d="M33.9775 68.9167L36.1211 59.3184H37.2669L39.4105 68.9167H38.0354L37.6308 66.8542H35.7568L35.3522 68.9167H33.9775ZM37.3746 65.5599L36.7004 62.0816H36.6734L35.9996 65.5599H37.3746Z" fill="#050505"/>
<path d="M42.7266 68.9167V59.3184H44.0478L46.1237 65.1018H46.1506V59.3184H47.5257V68.9167H46.2314L44.1286 63.1467H44.1017V68.9167H42.7266Z" fill="#050505"/>
<path d="M52.7426 68.9167V64.8591L50.8552 59.3184H52.311L53.4165 63.1336H53.4434L54.5489 59.3184H56.0047L54.1173 64.8591V68.9167H52.7426Z" fill="#050505"/>
<path d="M0.66399 73.4767V71.6254H0V71.248H1.77085V71.6254H1.11255V73.4767H0.66399Z" fill="#050505"/>
<path d="M6.93888 73.477H6.4471L6.25612 72.9714H5.36361L5.1783 73.477H4.70068L5.56875 71.248H6.04637L6.93888 73.477ZM6.10803 72.5937L5.80296 71.7689L5.49754 72.5937H6.10803Z" fill="#050505"/>
<path d="M11.0759 72.6551V72.2834H12.0452V73.1713C11.7969 73.4005 11.4801 73.515 11.0957 73.515C10.7237 73.515 10.4413 73.4069 10.2485 73.1904C10.0558 72.9743 9.95941 72.6955 9.95941 72.3546C9.95941 71.9734 10.0668 71.6871 10.2815 71.4961C10.4962 71.3051 10.7577 71.2095 11.0663 71.2095C11.6038 71.2095 11.9202 71.4277 12.0158 71.8643L11.5719 71.9493C11.5021 71.7108 11.3334 71.5918 11.0663 71.5918C10.6368 71.5918 10.4218 71.8398 10.4218 72.3362C10.4218 72.581 10.4767 72.7741 10.5865 72.9159C10.6964 73.0576 10.8548 73.1284 11.0613 73.1284C11.2523 73.1284 11.4291 73.0664 11.5914 72.9421V72.6554L11.0759 72.6551Z" fill="#050505"/>
<path d="M18.019 73.477V71.248H18.4721V73.0993H19.5882V73.4767L18.019 73.477Z" fill="#050505"/>
<path d="M22.7709 73.477V71.248H23.2241V73.477H22.7709Z" fill="#050505"/>
<path d="M26.5175 73.477V71.248H26.9554L27.8724 72.7369V71.248H28.2872V73.477H27.8387L26.937 72.0219V73.477H26.5175Z" fill="#050505"/>
<path d="M31.6235 73.477V71.248H33.2792V71.6254H32.077V72.1172H33.1931V72.4934H32.077V73.0993H33.3224V73.4767L31.6235 73.477Z" fill="#050505"/>
<path d="M39.1636 73.477V71.248H39.6121V72.1264H40.494V71.248H40.9426V73.477H40.494V72.503H39.6121V73.477H39.1636Z" fill="#050505"/>
<path d="M44.2699 73.477V71.248H45.9256V71.6254H44.7234V72.1172H45.8395V72.4934H44.7234V73.0993H45.9688V73.4767L44.2699 73.477Z" fill="#050505"/>
<path d="M49.2186 73.477V71.248H50.1682C50.4612 71.248 50.6798 71.2916 50.8244 71.3791C50.9689 71.4667 51.0412 71.6314 51.0412 71.8738C51.0412 72.2295 50.8456 72.436 50.4541 72.4934C50.604 72.5735 50.7695 72.7563 50.9505 73.0423L51.223 73.477H50.6837L50.1965 72.7571C50.1491 72.6834 50.0959 72.6299 50.0367 72.5962C49.9776 72.5625 49.8844 72.5462 49.7572 72.5462H49.6676V73.477H49.2186ZM49.6672 72.1884H50.0003C50.2263 72.1884 50.379 72.17 50.4587 72.1335C50.5381 72.097 50.5781 72.0197 50.5781 71.9017C50.5781 71.7908 50.5455 71.7168 50.4803 71.6803C50.4152 71.6438 50.2617 71.6254 50.0201 71.6254H49.6672V72.1884Z" fill="#050505"/>
<path d="M54.325 73.477V71.248H55.9807V71.6254H54.7785V72.1172H55.8946V72.4934H54.7785V73.0993H56.0239V73.4767L54.325 73.477Z" fill="#050505"/>
</svg>
