<svg width="61" height="90" viewBox="0 0 61 90" fill="none" xmlns="http://www.w3.org/2000/svg">
<path d="M31.857 66.6763H13.8052L9.51196 63.2129V48.6489L31.857 66.6763Z" fill="#050505"/>
<path d="M51.2649 36.4546V51.0186L31.8571 66.676H13.8052L51.2649 36.4546Z" fill="#050505"/>
<path d="M31.857 48.4488H13.8052L9.51196 44.9854V30.4214L31.857 48.4488Z" fill="#050505"/>
<path d="M51.2649 18.2275V32.7916L31.8571 48.449H13.8052L51.2649 18.2275Z" fill="#050505"/>
<path d="M31.857 30.2218H13.8052L9.51196 26.7584V12.1943L31.857 30.2218Z" fill="#050505"/>
<path d="M51.2649 0V14.564L31.8571 30.2214H13.8052L51.2649 0Z" fill="#050505"/>
<path d="M5.05321 78.0973C4.80236 77.8273 4.55966 77.6473 4.3251 77.5573C4.09019 77.4673 3.85422 77.4223 3.61648 77.4223C3.26287 77.4223 2.94293 77.485 2.657 77.6105C2.37071 77.7359 2.12483 77.9095 1.91933 78.1313C1.71347 78.3531 1.55437 78.6121 1.44205 78.9076C1.32938 79.2034 1.27305 79.5216 1.27305 79.8625C1.27305 80.2288 1.32938 80.5665 1.44205 80.8751C1.55437 81.1837 1.71347 81.4505 1.91933 81.6755C2.12519 81.9005 2.37107 82.0773 2.657 82.2059C2.94293 82.3345 3.26287 82.3986 3.61648 82.3986C3.89284 82.3986 4.16141 82.3327 4.42183 82.2009C4.68225 82.0691 4.92496 81.8587 5.14994 81.5692L6.153 82.2828C5.84439 82.7072 5.46812 83.0158 5.02452 83.2086C4.58092 83.4013 4.10827 83.4981 3.60692 83.4981C3.0797 83.4981 2.59571 83.4127 2.15565 83.2426C1.71524 83.0722 1.33576 82.8313 1.01759 82.5191C0.699416 82.2073 0.449985 81.8328 0.269995 81.3956C0.0900038 80.9584 0 80.4729 0 79.9394C0 79.393 0.0900038 78.8963 0.269995 78.4495C0.449985 78.0027 0.699062 77.6218 1.01759 77.3068C1.33576 76.9918 1.71524 76.7491 2.15565 76.5787C2.59606 76.4083 3.0797 76.3232 3.60692 76.3232C4.07001 76.3232 4.49907 76.4051 4.89448 76.5691C5.28989 76.7332 5.65803 77.0113 5.99888 77.4032L5.05321 78.0973Z" fill="#050505"/>
<path d="M8.53467 79.9392C8.53467 79.3929 8.62467 78.8961 8.80466 78.4493C8.98465 78.0025 9.23373 77.6217 9.55226 77.3067C9.87043 76.9917 10.2499 76.749 10.6903 76.5786C11.1307 76.4081 11.6143 76.3231 12.1416 76.3231C12.6752 76.3167 13.1638 76.3954 13.6077 76.5594C14.0513 76.7235 14.4336 76.963 14.7553 77.278C15.0767 77.593 15.3275 77.9724 15.5075 78.416C15.6875 78.8596 15.7775 79.355 15.7775 79.9013C15.7775 80.4353 15.6875 80.9203 15.5075 81.3575C15.3275 81.7948 15.0767 82.171 14.7553 82.486C14.4336 82.801 14.0513 83.0469 13.6077 83.2237C13.1641 83.4005 12.6752 83.4919 12.1416 83.4986C11.6143 83.4986 11.1304 83.4133 10.6903 83.2432C10.2499 83.0728 9.87043 82.8318 9.55226 82.5197C9.23408 82.2079 8.98465 81.8334 8.80466 81.3962C8.62467 80.9582 8.53467 80.4728 8.53467 79.9392ZM9.80772 79.862C9.80772 80.2283 9.86405 80.566 9.97672 80.8746C10.089 81.1832 10.2481 81.45 10.454 81.675C10.6598 81.9 10.9057 82.0768 11.1917 82.2054C11.4776 82.334 11.7975 82.3982 12.1511 82.3982C12.5048 82.3982 12.8261 82.334 13.1156 82.2054C13.4047 82.0768 13.6524 81.9 13.8582 81.675C14.0641 81.45 14.2232 81.1832 14.3355 80.8746C14.4478 80.566 14.5041 80.2283 14.5041 79.862C14.5041 79.5211 14.4478 79.203 14.3355 78.9071C14.2228 78.6116 14.0637 78.3526 13.8582 78.1308C13.6524 77.909 13.4051 77.7354 13.1156 77.61C12.8265 77.4845 12.5048 77.4218 12.1511 77.4218C11.7975 77.4218 11.4776 77.4845 11.1917 77.61C10.9054 77.7354 10.6595 77.909 10.454 78.1308C10.2481 78.3526 10.089 78.6116 9.97672 78.9071C9.86405 79.203 9.80772 79.5215 9.80772 79.862Z" fill="#050505"/>
<path d="M18.8923 76.4966H20.744L22.5666 81.2802L24.4086 76.4966H26.2411V83.3245H25.0839V77.6538H25.0648L22.9914 83.3245H22.1428L20.0693 77.6538H20.0502V83.3245H18.893V76.4966H18.8923Z" fill="#050505"/>
<path d="M29.7226 76.4966H32.0179C32.3456 76.4966 32.6623 76.5288 32.9678 76.593C33.2732 76.6574 33.5418 76.7651 33.7731 76.9161C34.0045 77.0674 34.1891 77.2697 34.3276 77.5237C34.4658 77.7778 34.5349 78.0945 34.5349 78.4737C34.5349 78.9045 34.4608 79.2517 34.3131 79.5153C34.165 79.7789 33.9659 79.983 33.715 80.1276C33.4642 80.2721 33.1733 80.3703 32.842 80.4217C32.5107 80.473 32.1653 80.4989 31.8053 80.4989H30.9372V83.3245H29.7219V76.4966H29.7226ZM31.671 79.4572C31.8446 79.4572 32.0246 79.4508 32.211 79.4377C32.3973 79.425 32.5692 79.3864 32.7268 79.3219C32.8845 79.2577 33.0128 79.1614 33.1127 79.0328C33.2123 78.9041 33.2622 78.7241 33.2622 78.4928C33.2622 78.2805 33.2172 78.1119 33.1272 77.9865C33.0372 77.861 32.9214 77.7647 32.78 77.697C32.6386 77.6293 32.481 77.5861 32.3073 77.567C32.1337 77.5478 31.9665 77.5379 31.806 77.5379H30.9379V79.4572H31.671Z" fill="#050505"/>
<path d="M39.0389 76.4966H40.0902L43.0317 83.3245H41.6431L41.0064 81.762H38.0458L37.4286 83.3245H36.0687L39.0389 76.4966ZM40.5823 80.7207L39.5311 77.9432L38.4607 80.7207H40.5823Z" fill="#050505"/>
<path d="M45.7223 76.4966H47.333L50.6408 81.5693H50.66V76.4966H51.8753V83.3245H50.3322L46.9567 78.0878H46.9376V83.3245H45.7223V76.4966Z" fill="#050505"/>
<path d="M56.9961 80.402L54.4309 76.4961H55.9548L57.6328 79.2158L59.3303 76.4961H60.777L58.2118 80.402V83.3241H56.9965V80.402H56.9961Z" fill="#050505"/>
<path d="M0.865975 86.3135H0.00854492V85.8901H2.20066V86.3135H1.34323V89.0233H0.866321L0.865975 86.3135Z" fill="#050505"/>
<path d="M6.89498 88.3233H5.70661L5.46603 89.0238H4.96326L6.10238 85.8906H6.49992L7.63903 89.0238H7.13839L6.89498 88.3233ZM6.75962 87.9021L6.30612 86.5333H6.29796L5.84443 87.9021H6.75962Z" fill="#050505"/>
<path d="M11.9917 87.2984H13.1049V87.9365C13.0992 88.2505 12.9919 88.5134 12.7825 88.7252C12.572 88.9361 12.307 89.0441 11.9874 89.0498C11.7412 89.0441 11.5353 88.9839 11.3706 88.8695C11.203 88.7593 11.0811 88.6317 11.0053 88.4868C10.9822 88.4397 10.9617 88.3943 10.9429 88.3514C10.9255 88.3072 10.9114 88.2512 10.9 88.1839C10.8784 88.0577 10.8678 87.8157 10.8678 87.4575C10.8678 87.0936 10.8784 86.8502 10.9 86.7269C10.9231 86.6036 10.9581 86.5041 11.0053 86.4282C11.0811 86.2833 11.203 86.1547 11.3706 86.0413C11.5353 85.9269 11.7408 85.8681 11.9874 85.8652C12.2896 85.8681 12.5362 85.9577 12.7265 86.1338C12.9171 86.3113 13.0373 86.5313 13.0876 86.7935H12.5848C12.5462 86.6674 12.476 86.56 12.3743 86.4711C12.2684 86.3868 12.1394 86.3428 11.9874 86.34C11.8758 86.3428 11.7798 86.3652 11.6994 86.4066C11.6179 86.4495 11.552 86.5034 11.5017 86.5678C11.44 86.6352 11.3993 86.722 11.3791 86.8279C11.356 86.9395 11.3447 87.1496 11.3447 87.4575C11.3447 87.7654 11.356 87.9741 11.3791 88.0829C11.3993 88.1917 11.44 88.2799 11.5017 88.3472C11.552 88.4117 11.6179 88.4641 11.6994 88.5042C11.7794 88.5513 11.8755 88.575 11.9874 88.575C12.1724 88.575 12.3247 88.5119 12.4452 88.3858C12.5657 88.2653 12.627 88.1073 12.6301 87.911V87.7477H11.992L11.9917 87.2984Z" fill="#050505"/>
<path d="M17.7777 85.8906H18.2525V88.5749H19.7782V89.0242H17.7777V85.8906Z" fill="#050505"/>
<path d="M23.306 85.8906H23.7808V89.0238H23.306V85.8906Z" fill="#050505"/>
<path d="M27.5216 85.8906H27.9687L29.387 88.1171H29.3955V85.8906H29.8703V89.0238H29.4211L28.0049 86.7973H27.9964V89.0238H27.5212L27.5216 85.8906Z" fill="#050505"/>
<path d="M33.6129 85.8906H35.6137V86.3399H34.088V87.2338H35.3905V87.6551H34.088V88.5749H35.6137V89.0242H33.6129V85.8906Z" fill="#050505"/>
<path d="M42.2394 87.6551H40.9997V89.0238H40.5245V85.8906H40.9997V87.2338H42.2394V85.8906H42.7142V89.0238H42.2394V87.6551Z" fill="#050505"/>
<path d="M47.3911 85.8906H49.3919V86.3399H47.8662V87.2338H49.1683V87.6551H47.8662V88.5749H49.3919V89.0242H47.3911V85.8906Z" fill="#050505"/>
<path d="M52.9194 85.8906H54.1422C54.4029 85.8906 54.6155 85.9594 54.7803 86.0968C54.9794 86.2531 55.0832 86.476 55.0917 86.7651C55.086 87.1906 54.8841 87.4801 54.4859 87.6331L55.2122 89.0235H54.6471L54.0004 87.6845H53.3946V89.0235H52.9198L52.9194 85.8906ZM53.3946 87.2639H54.1124C54.2899 87.2611 54.4231 87.2094 54.5121 87.1091C54.5996 87.0159 54.6432 86.9015 54.6432 86.7654C54.6403 86.6021 54.5879 86.4841 54.4862 86.4108C54.4058 86.3463 54.2899 86.314 54.1379 86.314H53.3946V87.2639Z" fill="#050505"/>
<path d="M58.6841 85.8906H60.6849V86.3399H59.1592V87.2338H60.4613V87.6551H59.1592V88.5749H60.6849V89.0242H58.6841V85.8906Z" fill="#050505"/>
</svg>
