<svg width="69" height="79" viewBox="0 0 69 79" fill="none" xmlns="http://www.w3.org/2000/svg">
<path d="M62.1525 23.6916C60.8798 20.6194 59.0016 17.798 56.5785 15.3752C51.859 10.6558 45.6231 8.00125 38.9698 7.86768C41.1007 10.852 42.2529 14.3243 42.4272 17.838C43.1801 18.0276 43.916 18.2724 44.631 18.5683C46.5684 19.3704 48.3463 20.5538 49.8731 22.0806C52.9276 25.134 54.6088 29.1945 54.6088 33.5132C54.6088 37.8315 52.9276 41.8923 49.8731 44.9458C46.8196 48.0003 42.7592 49.6815 38.4405 49.6815C34.1218 49.6815 30.0617 48.0003 27.0079 44.9458C24.8856 42.8234 23.4775 40.2529 22.7841 37.536C19.2658 37.3709 15.7868 36.2265 12.7961 34.0996C12.9438 40.7326 15.5962 46.9448 20.3025 51.6511C25.1474 56.4967 31.5888 59.1643 38.4401 59.1643C45.2915 59.1643 51.7332 56.4967 56.5777 51.6511C61.4233 46.8063 64.0909 40.3656 64.0909 33.5135C64.0916 30.088 63.4252 26.7642 62.1525 23.6916ZM22.5496 30.5621C23.1225 27.4527 24.6085 24.4807 27.0082 22.0806C29.3449 19.7439 32.2712 18.2108 35.4519 17.6191C35.1957 14.9837 34.0598 12.4188 32.0455 10.4046C31.5629 9.92198 31.0478 9.48865 30.5074 9.10741C26.701 10.3394 23.2143 12.4642 20.3029 15.3756C17.3773 18.3011 15.2458 21.8088 14.016 25.6368C14.3972 26.1718 14.8259 26.6781 15.2989 27.1522C17.3227 29.1746 19.9018 30.3127 22.5496 30.5621Z" fill="#050505"/>
<path d="M42.4272 17.8379C41.1393 17.5126 39.8031 17.3447 38.4405 17.3447C37.4268 17.3447 36.4272 17.4375 35.4515 17.6185C35.7842 21.0249 34.6482 24.5485 32.0451 27.1517C29.4515 29.7452 25.9438 30.8822 22.5488 30.5616C22.124 32.8706 22.202 35.2544 22.7841 37.5352C23.0799 37.5493 23.3758 37.5561 23.6716 37.5561C28.4821 37.5561 33.2948 35.725 36.9569 32.0628C40.6191 28.3996 42.4502 23.5891 42.4502 18.7782C42.4509 18.4646 42.4435 18.1507 42.4272 17.8379ZM23.6724 6.94204C25.1888 6.94204 26.7049 7.23045 28.1303 7.80798C28.9591 8.14352 29.7584 8.57613 30.5077 9.10725C33.0358 8.28808 35.7052 7.86219 38.4412 7.86219C38.6176 7.86219 38.7948 7.86397 38.9701 7.86786C38.3756 7.03523 37.7052 6.24051 36.958 5.49326C29.6326 -1.83109 17.7135 -1.83109 10.3881 5.49326C6.83967 9.0417 4.88528 13.7604 4.88528 18.7786C4.88528 23.7967 6.83967 28.5147 10.3881 32.0632C11.146 32.82 11.9521 33.4988 12.7967 34.099C12.7921 33.9045 12.79 33.7082 12.79 33.513C12.79 30.799 13.2081 28.1487 14.0163 25.6366C12.5958 23.6472 11.8305 21.2719 11.8305 18.7786C11.8305 15.6153 13.0625 12.6412 15.2992 10.4044C17.6072 8.09604 20.6398 6.94204 23.6724 6.94204Z" fill="#050505"/>
<path d="M0.838669 76.1497H0.000366211V75.7358H2.1436V76.1497H1.30529V78.7992H0.838669V76.1497Z" fill="#050505"/>
<path d="M7.5947 78.1137H6.43256L6.19729 78.7986H5.70551L6.81911 75.7349H7.20779L8.32139 78.7986H7.83174L7.5947 78.1137ZM7.46219 77.702L7.01894 76.3634H7.01044L6.5672 77.702H7.46219Z" fill="#050505"/>
<path d="M13.4387 77.1116H14.5272V77.7356C14.5215 78.0424 14.4166 78.2993 14.2118 78.5069C14.006 78.7128 13.7466 78.8187 13.4345 78.824C13.1936 78.8183 12.9923 78.7595 12.8314 78.6476C12.6674 78.5399 12.5484 78.4151 12.4743 78.2734C12.452 78.227 12.4314 78.1831 12.4134 78.1409C12.3967 78.0977 12.3825 78.0428 12.3712 77.9772C12.3503 77.8539 12.3397 77.6172 12.3397 77.2668C12.3397 76.9111 12.3503 76.673 12.3712 76.5525C12.3935 76.4321 12.4279 76.3346 12.4743 76.2606C12.5484 76.1192 12.6678 75.9931 12.8314 75.8822C12.9927 75.7702 13.1936 75.7128 13.4345 75.71C13.73 75.7128 13.9709 75.8003 14.1573 75.9725C14.3437 76.1461 14.4613 76.3612 14.5102 76.6177H14.0184C13.9805 76.4944 13.9117 76.3895 13.8125 76.3027C13.7087 76.2202 13.5829 76.1773 13.4345 76.1745C13.325 76.1773 13.2311 76.1989 13.1528 76.2397C13.0731 76.2818 13.0086 76.3343 12.9594 76.3973C12.8991 76.4632 12.8591 76.5479 12.8396 76.6517C12.8173 76.7609 12.8059 76.966 12.8059 77.2675C12.8059 77.569 12.8173 77.7724 12.8396 77.8791C12.8594 77.9857 12.8991 78.0718 12.9594 78.1374C13.0082 78.2004 13.0727 78.2515 13.1528 78.2908C13.2311 78.3368 13.325 78.3602 13.4345 78.3602C13.6152 78.3602 13.7643 78.2986 13.882 78.1753C13.9996 78.0576 14.0598 77.9028 14.0627 77.7108V77.551H13.4387V77.1116Z" fill="#050505"/>
<path d="M21.0267 75.7358H21.4912V78.3602H22.9832V78.7996H21.0271V75.7358H21.0267Z" fill="#050505"/>
<path d="M27.2931 75.7358H27.7576V78.7996H27.2931V75.7358Z" fill="#050505"/>
<path d="M32.2754 75.7358H32.7123L34.099 77.9127H34.1076V75.7358H34.5721V78.7996H34.1327L32.7481 76.6227H32.7395V78.7996H32.2751L32.2754 75.7358Z" fill="#050505"/>
<path d="M39.0924 75.7358H41.0485V76.1752H39.5565V77.0493H40.8299V77.461H39.5565V78.3602H41.0485V78.7996H39.0924V75.7358Z" fill="#050505"/>
<path d="M49.2356 77.461H48.0231V78.7996H47.5587V75.7358H48.0231V77.0493H49.2356V75.7358H49.7001V78.7996H49.2356V77.461Z" fill="#050505"/>
<path d="M54.2205 75.7358H56.1766V76.1752H54.6846V77.0493H55.958V77.461H54.6846V78.3602H56.1766V78.7996H54.2205V75.7358Z" fill="#050505"/>
<path d="M60.4868 75.7358H61.6823C61.9374 75.7358 62.1454 75.8032 62.3062 75.9374C62.5007 76.0902 62.6024 76.3081 62.6109 76.5908C62.6053 77.0068 62.4079 77.2899 62.0185 77.4397L62.7289 78.7992H62.1762L61.5437 77.49H60.9513V78.7992H60.4868V75.7358ZM60.951 77.0783H61.6529C61.8265 77.0755 61.9569 77.0252 62.0437 76.927C62.1291 76.836 62.1719 76.724 62.1719 76.5908C62.1691 76.431 62.1181 76.3155 62.0185 76.2443C61.9402 76.1812 61.8265 76.1497 61.678 76.1497H60.951V77.0783Z" fill="#050505"/>
<path d="M66.9842 75.7358H68.9403V76.1752H67.4483V77.0493H68.7217V77.461H67.4483V78.3602H68.9403V78.7996H66.9842V75.7358Z" fill="#050505"/>
<path d="M0.940699 71.2131C0.313566 70.6044 0 69.8316 0 68.8955C0 67.9594 0.313566 67.187 0.940699 66.578C1.56748 65.9689 2.33421 65.6646 3.24018 65.6646C3.94208 65.6646 4.56603 65.8506 5.11202 66.2226C5.65802 66.5946 6.03925 67.1105 6.25503 67.7706H4.41898C4.17911 67.3086 3.79504 67.0776 3.26712 67.0776C2.73884 67.0776 2.32358 67.2427 2.02065 67.5725C1.71771 67.9027 1.56607 68.3435 1.56607 68.8955C1.56607 69.4476 1.71735 69.8887 2.02065 70.2185C2.32358 70.5487 2.73919 70.7135 3.26712 70.7135C3.79504 70.7135 4.17911 70.4825 4.41898 70.0205H6.25503C6.03925 70.6806 5.65802 71.1964 5.11202 71.5685C4.56603 71.9405 3.94208 72.1265 3.24018 72.1265C2.33421 72.1269 1.56748 71.8225 0.940699 71.2131Z" fill="#050505"/>
<path d="M11.4167 71.2177C10.7895 70.6058 10.476 69.8316 10.476 68.8955C10.476 67.9594 10.7895 67.187 11.4167 66.578C12.0434 65.9689 12.8116 65.6646 13.7208 65.6646C14.6299 65.6646 15.3949 65.9693 16.0156 66.578C16.6367 67.187 16.9471 67.9594 16.9471 68.8955C16.9471 69.8316 16.635 70.6054 16.011 71.2177C15.3867 71.8296 14.6218 72.1357 13.7161 72.1357C12.8102 72.1357 12.0434 71.8299 11.4167 71.2177ZM14.9268 70.2189C15.2298 69.889 15.3814 69.4479 15.3814 68.8959C15.3814 68.3439 15.2298 67.9031 14.9268 67.5729C14.6239 67.243 14.2189 67.0779 13.7119 67.0779C13.2049 67.0779 12.7999 67.243 12.497 67.5729C12.194 67.9031 12.0424 68.3439 12.0424 68.8959C12.0424 69.4479 12.1937 69.889 12.497 70.2189C12.7999 70.5491 13.2049 70.7139 13.7119 70.7139C14.2186 70.7139 14.6235 70.5487 14.9268 70.2189Z" fill="#050505"/>
<path d="M28.6922 65.7544V72.0725H27.1531V68.5085L25.6859 72.0725H24.5429L23.076 68.5085V72.0725H21.5369V65.7544H23.301L25.119 70.1103L26.9281 65.7544H28.6922Z" fill="#050505"/>
<path d="M38.4574 67.6898C38.4574 68.1157 38.3044 68.5267 37.9982 68.9228C37.8363 69.1269 37.5947 69.2934 37.2737 69.4224C36.9527 69.5513 36.5732 69.6158 36.1353 69.6158H35.1811V72.073H33.642V65.7549H36.1349C36.8669 65.7549 37.4367 65.9437 37.8448 66.3218C38.2533 66.6998 38.4574 67.1558 38.4574 67.6898ZM35.1815 68.4459H36.1356C36.3695 68.4459 36.5541 68.3768 36.689 68.239C36.824 68.1011 36.8917 67.9194 36.8917 67.6944C36.8917 67.4694 36.8226 67.2848 36.6848 67.1409C36.5466 66.9971 36.3638 66.9248 36.136 66.9248H35.1818L35.1815 68.4459Z" fill="#050505"/>
<path d="M46.9985 72.0725L46.6474 71.0106H44.3794L44.0283 72.0725H42.3903L44.5863 65.7363H46.4585L48.6453 72.0725H46.9985ZM44.7663 69.8407H46.2605L45.5136 67.5908L44.7663 69.8407Z" fill="#050505"/>
<path d="M57.1145 65.7368H58.6536V72.073H57.1145L54.5404 68.0859V72.073H53.0013V65.7368H54.5404L57.1145 69.7239V65.7368Z" fill="#050505"/>
<path d="M66.7893 72.0725H65.2502V70.0384L63.0634 65.7544H64.8094L66.0243 68.6073L67.2304 65.7544H68.9765L66.7893 70.0384V72.0725Z" fill="#050505"/>
</svg>
