<svg width="69" height="71" viewBox="0 0 69 71" fill="none" xmlns="http://www.w3.org/2000/svg">
<path d="M6.61857 62.5788L5.52444 62.3081L5.50283 62.3729C5.3728 62.9579 5.12372 63.4018 4.76622 63.7051C4.39809 63.9978 3.95378 64.1494 3.42302 64.1494C2.98969 64.1494 2.58896 64.041 2.20985 63.8245C1.84136 63.6081 1.57067 63.2722 1.39741 62.8279C1.21317 62.3836 1.12672 61.8528 1.12672 61.2572C1.12672 60.7913 1.20254 60.3363 1.35419 59.903C1.50584 59.4697 1.7659 59.1232 2.1234 58.8631C2.49153 58.614 2.95745 58.484 3.49919 58.484C3.97574 58.484 4.36584 58.5924 4.67976 58.8305C4.99404 59.058 5.23214 59.4265 5.39477 59.9356L5.41638 59.9898L6.49952 59.7407L6.4779 59.6755C6.27205 59.0041 5.91454 58.473 5.4054 58.0939C4.89625 57.7258 4.26805 57.5415 3.52045 57.5415C2.87029 57.5415 2.26371 57.6825 1.71134 57.9748C1.16959 58.2781 0.736269 58.7115 0.443961 59.2748C0.151653 59.8382 0 60.5096 0 61.2572C0 61.9506 0.130037 62.6114 0.390103 63.207C0.650168 63.8136 1.03991 64.2901 1.54906 64.6044C2.04722 64.9293 2.70801 65.0919 3.50982 65.0919C4.27903 65.0919 4.93983 64.8751 5.48121 64.4637C6.02296 64.052 6.3911 63.4348 6.59695 62.644L6.61857 62.5788Z" fill="#050505"/>
<path d="M15.4258 58.0183C14.8734 57.6934 14.2449 57.5308 13.5624 57.5308C12.5116 57.5308 11.6453 57.8773 10.9845 58.5597C10.3237 59.2421 9.98779 60.2062 9.98779 61.4087C9.98779 62.0479 10.1285 62.6545 10.4211 63.2285C10.7028 63.8025 11.1251 64.2574 11.6775 64.5933C12.2299 64.9292 12.8581 65.0915 13.5515 65.0915C14.2016 65.0915 14.8082 64.9398 15.3606 64.6365C15.9239 64.3439 16.3573 63.8889 16.6712 63.3039C16.9745 62.7299 17.1261 62.0582 17.1261 61.3216C17.1261 60.5956 16.9745 59.9458 16.6928 59.3718C16.4008 58.7985 15.9782 58.3436 15.4258 58.0183ZM15.3067 63.4131C14.8518 63.9006 14.2558 64.1497 13.5518 64.1497C12.8584 64.1497 12.2738 63.9006 11.8079 63.4241C11.353 62.9365 11.1145 62.2651 11.1145 61.4201C11.1145 60.3692 11.3636 59.6003 11.8401 59.156C12.3167 58.7117 12.9017 58.4842 13.5624 58.4842C14.039 58.4842 14.4617 58.6033 14.8408 58.8307C15.2089 59.0582 15.5016 59.3941 15.6965 59.8164C15.8913 60.2388 15.9888 60.7483 15.9888 61.3223C15.9891 62.2215 15.7617 62.9255 15.3067 63.4131Z" fill="#050505"/>
<path d="M28.0354 57.7803H26.9845V65.0922H28.0354V57.7803Z" fill="#050505"/>
<path d="M24.5255 63.7816L24.2332 62.915L22.4889 57.7803H22.3699V60.4341L23.9838 65.0922H24.9479L26.5943 60.4451V57.8451L24.8504 62.8172C24.7098 63.2183 24.6013 63.5325 24.5255 63.7816Z" fill="#050505"/>
<path d="M21.9797 57.7803H20.9182V65.0922H21.9797V57.7803Z" fill="#050505"/>
<path d="M32.921 57.7803H31.8269V65.0922H32.921V57.7803Z" fill="#050505"/>
<path d="M36.7014 58.2026C36.4524 58.0294 36.1381 57.9099 35.7806 57.8561C35.5205 57.8019 35.1414 57.7803 34.6539 57.7803H33.3107V58.7553H34.7297C35.163 58.7553 35.4553 58.777 35.6179 58.8202C35.856 58.885 36.0513 59.015 36.1919 59.2209C36.3436 59.4268 36.4084 59.6652 36.4084 59.9575C36.4084 60.3476 36.2894 60.6509 36.0403 60.8674C35.7912 61.0842 35.3579 61.1923 34.7513 61.1923H33.3107V62.178H34.7407C35.7806 62.178 36.5282 61.9505 36.9289 61.5172C37.3406 61.0839 37.5465 60.5531 37.5465 59.9249C37.5465 59.5568 37.4706 59.2209 37.319 58.9176C37.1564 58.6143 36.9615 58.3652 36.7014 58.2026Z" fill="#050505"/>
<path d="M45.3244 57.7803H44.1977L41.3376 65.0922H42.4966L42.8215 64.2365H42.8109L43.6343 62.0157L43.8076 61.5608L44.4141 59.9465H44.4251C44.5552 59.589 44.6636 59.2209 44.75 58.8634C44.8584 59.2099 45.0101 59.6326 45.1943 60.1092L45.9309 62.0157H44.057L43.7211 62.915H46.2778L47.1335 65.0922H48.3793L45.3244 57.7803Z" fill="#050505"/>
<path d="M53.4707 60.1202L56.4824 64.5399V62.6659L53.4707 58.2568V60.1202Z" fill="#050505"/>
<path d="M56.8942 63.2725L56.8722 63.2399V65.0922H57.9557V57.7803H56.8942V63.2725Z" fill="#050505"/>
<path d="M53.081 57.7803H52.0627V65.0922H53.081V57.7803Z" fill="#050505"/>
<path d="M67.4236 57.7802L65.983 59.9248C65.7013 60.3471 65.4522 60.7482 65.2354 61.0947V61.0838L64.6288 62.0046V65.0921H65.7339V62.0046L68.7129 57.7798H67.4236V57.7802Z" fill="#050505"/>
<path d="M64.5526 59.9791L63.0904 57.7803H61.7472L64.3903 61.6582L65.0079 60.7051L64.5526 59.9791Z" fill="#050505"/>
<path d="M0.00256348 68.4235H0.816775V70.6936H1.36667V68.4235H2.17414V67.9604H0.00256348V68.4235Z" fill="#050505"/>
<path d="M6.83083 67.9604L5.76648 70.6936H6.35215L6.57962 70.0736H7.67374L7.90794 70.6936H8.51098L7.41686 67.9604H6.83083ZM6.74367 69.6108L7.11818 68.5993L7.49234 69.6108H6.74367Z" fill="#050505"/>
<path d="M13.5833 69.6866H14.2161V70.038C14.017 70.1904 13.8005 70.2666 13.5663 70.2666C13.313 70.2666 13.1188 70.1798 12.9842 70.0058C12.8492 69.8318 12.7819 69.5951 12.7819 69.295C12.7819 68.6863 13.0451 68.382 13.572 68.382C13.8997 68.382 14.1063 68.5283 14.192 68.8206L14.7362 68.7164C14.619 68.1811 14.231 67.9136 13.572 67.9136C13.1939 67.9136 12.8729 68.0309 12.6097 68.2651C12.3464 68.4993 12.2146 68.8504 12.2146 69.3181C12.2146 69.7362 12.3329 70.0781 12.5689 70.3431C12.8052 70.6085 13.1514 70.741 13.6078 70.741C14.0793 70.741 14.4673 70.6007 14.772 70.3197V69.2309H13.5833V69.6866Z" fill="#050505"/>
<path d="M22.653 67.9604H22.0974V70.6936H24.0217V70.2309H22.653V67.9604Z" fill="#050505"/>
<path d="M28.48 67.9604H27.9241V70.6936H28.48V67.9604Z" fill="#050505"/>
<path d="M34.1798 69.7862L33.0556 67.9604H32.5181V70.6936H33.0325V68.9093L34.1383 70.6936H34.6882V67.9604H34.1798V69.7862Z" fill="#050505"/>
<path d="M39.3351 69.4879H40.7038V69.0266H39.3351V68.4235H40.8094V67.9604H38.7795V70.6936H40.8625V70.2309H39.3351V69.4879Z" fill="#050505"/>
<path d="M49.6569 69.0379H48.5755V67.9604H48.0253V70.6936H48.5755V69.4992H49.6569V70.6936H50.2068V67.9604H49.6569V69.0379Z" fill="#050505"/>
<path d="M54.8423 69.4879H56.211V69.0266H54.8423V68.4235H56.3166V67.9604H54.2867V70.6936H56.3694V70.2309H54.8423V69.4879Z" fill="#050505"/>
<path d="M61.8693 69.4879C62.3494 69.4174 62.5893 69.1641 62.5893 68.7279C62.5893 68.4306 62.5007 68.2287 62.3235 68.1213C62.1464 68.0143 61.8782 67.9604 61.5193 67.9604H60.355V70.6936H60.9049V69.552H61.0151C61.1713 69.552 61.2854 69.5726 61.358 69.6133C61.4303 69.6544 61.4955 69.72 61.5536 69.8103L62.1506 70.6933H62.8121L62.478 70.1604C62.2559 69.8103 62.0532 69.586 61.8693 69.4879ZM61.3134 69.1134H60.9049V68.4235H61.3378C61.634 68.4235 61.8222 68.4459 61.9023 68.4905C61.9823 68.5352 62.0224 68.6259 62.0224 68.7619C62.0224 68.9068 61.9735 69.0014 61.876 69.0461C61.7779 69.0911 61.5905 69.1134 61.3134 69.1134Z" fill="#050505"/>
<path d="M67.172 69.4879H68.5404V69.0266H67.172V68.4235H68.6463V67.9604H66.6161V70.6936H68.6991V70.2309H67.172V69.4879Z" fill="#050505"/>
<path d="M30.8847 7.35556V27.8394V41.794H17.2111C17.8871 38.4617 19.5247 35.4001 21.9851 32.9444C24.4444 30.4872 27.5084 28.8545 30.8393 28.1845C30.8216 28.0697 30.8039 27.9549 30.7872 27.8398H17.2738L17.2741 27.8394H17.2738C17.2086 27.9021 17.1444 27.9663 17.0793 28.0304C14.8404 30.2668 13.0794 32.8721 11.8485 35.7739C10.5727 38.7799 9.92391 41.9708 9.91789 45.2606L9.91187 48.7375H37.7229H37.7679V27.8394H37.7739L37.7729 27.5989L37.7683 24.3686V7.29994H37.7824H37.8274V7.2893H51.5011C50.8265 10.6216 49.1888 13.6832 46.7281 16.139C44.9636 17.901 42.8895 19.2388 40.6283 20.1019V20.8963H51.787C53.9536 18.6953 55.661 16.1446 56.8646 13.3094C58.1395 10.3034 58.7882 7.11216 58.7939 3.82308L58.7999 0.346191H30.8847V7.35556Z" fill="#050505"/>
<path d="M30.8847 28.1752V27.8394H30.7876H17.2745L17.2742 27.8397H30.7876C30.8043 27.9545 30.822 28.0693 30.8397 28.1845V28.1848C30.855 28.1813 30.8691 28.1788 30.8847 28.1752Z" fill="#050505"/>
<path d="M30.7875 27.8394H30.8845V7.35553C30.8123 7.28077 30.74 7.20744 30.6663 7.13374C28.4274 4.89732 25.8186 3.14099 22.9157 1.91507C19.9072 0.643796 16.7138 0 13.4244 0H9.91809V27.8394H17.2736H17.274H30.7875ZM16.8612 20.8963V7.27828C20.2098 7.94368 23.2906 9.57884 25.7619 12.0466C28.2212 14.5038 29.8599 17.5654 30.5348 20.8963H16.8612Z" fill="#050505"/>
<path d="M40.6287 27.8391H51.505V41.4571C48.155 40.7931 45.0756 39.1566 42.6043 36.6888C41.8716 35.9571 41.2112 35.1709 40.6287 34.3397V44.1024C42.1217 45.1862 43.7342 46.0958 45.4501 46.8203C48.4586 48.0916 51.652 48.7365 54.9415 48.7365H58.4467V20.896H51.787H40.6283V27.8391H40.6287Z" fill="#050505"/>
<path d="M37.7825 48.737H37.8278V27.8393H37.8335L37.8324 27.5984L37.8278 24.3685V7.2998H37.7825V48.737Z" fill="white"/>
</svg>
