<svg id="Layer_1" data-name="Layer 1" xmlns="http://www.w3.org/2000/svg" viewBox="0 0 234.49 38.85"><defs><style>.cls-1{fill:#b3182a;}.cls-2{fill:#a99e9d;}.cls-3{fill:#7a161b;}</style></defs><path class="cls-1" d="M8.65,24.84c.23-8.26,3.93-14.39,11.47-17.94A19.15,19.15,0,0,1,42,11.52a10.74,10.74,0,0,1,2,2.72c.64,1.46.47,2.66-.57,3.51a3.37,3.37,0,0,1-3.8,0,23.5,23.5,0,0,1-3-2.74,12,12,0,0,0-9.89-3.4A12.86,12.86,0,0,0,15,22.49,12.86,12.86,0,0,0,26.59,37.56a12.26,12.26,0,0,0,10-3.15,20,20,0,0,1,3.45-3c1.47-.82,2.39-.8,3.51.22A2.85,2.85,0,0,1,44,35.2a16.48,16.48,0,0,1-4.6,5,18.3,18.3,0,0,1-15.13,3.48C16.69,41.91,11.63,37.4,9.35,29.9a19.1,19.1,0,0,1-.68-2.78A15.76,15.76,0,0,1,8.65,24.84Z" transform="translate(-8.62 -5.24)"/><path class="cls-1" d="M36.05,21.51h6.44a3.88,3.88,0,0,1,2.8,1.07,2.77,2.77,0,0,1-.39,4.5,4.71,4.71,0,0,1-2.73.77c-4.13,0-8.26,0-12.39,0a3.67,3.67,0,0,1-3.68-2.46,3.25,3.25,0,0,1,3.2-3.87c2.25-.06,4.5,0,6.75,0Z" transform="translate(-8.62 -5.24)"/><path class="cls-2" d="M31.58,28.68H34c.26,0,.56,0,.66.32s-.14.42-.28.6a7.48,7.48,0,0,1-9.27,1.74A7.26,7.26,0,0,1,21,24.46,7.36,7.36,0,0,1,26,17.53a7.66,7.66,0,0,1,8.13,1.83c.25.26.62.55.49.92s-.63.24-1,.25a39.38,39.38,0,0,0-4.85.17,4.27,4.27,0,0,0-3.68,3.93,4.2,4.2,0,0,0,3.54,3.93A21.08,21.08,0,0,0,31.58,28.68Z" transform="translate(-8.62 -5.24)"/><path class="cls-3" d="M20.61,16.24h6.9a0,0,0,0,1,0,0v6.32a0,0,0,0,1,0,0h-6.9a3.19,3.19,0,0,1-3.19-3.19v0a3.19,3.19,0,0,1,3.19-3.19Z"/><path d="M243.11,19.83a9.8,9.8,0,0,1-.38,2.07,7.34,7.34,0,0,1-6.11,5.24,15.38,15.38,0,0,1-2.71.13c-2.14,0-4.28,0-6.43,0-.54,0-.64-.09-.64-.63v-.23c0-.43.14-.56.58-.57h1.2c.39,0,.47-.08.48-.46.09-3,.16-6,.13-9,0-1-.08-1.94-.11-2.91,0-.34-.17-.44-.48-.43h-1.13c-.45,0-.59-.13-.63-.58,0-.1,0-.2,0-.3,0-.44.18-.59.62-.59s.82.05,1.23.05c1.55,0,3.11,0,4.66,0a13.88,13.88,0,0,1,4.71.56,7,7,0,0,1,5,6.27,1.33,1.33,0,0,0,.05.19ZM231.79,18c0,2.18.06,4.35.06,6.52a1.19,1.19,0,0,0,1.06,1.35,5.67,5.67,0,0,0,5.41-1.49,6.83,6.83,0,0,0,1.73-6.77,5.57,5.57,0,0,0-3.11-4A8.76,8.76,0,0,0,232.5,13c-.5,0-.62.21-.66.73C231.75,15.12,231.82,16.55,231.79,18Z" transform="translate(-8.62 -5.24)"/><path d="M48.22,19a11.1,11.1,0,0,1,.27-1.82,7.51,7.51,0,0,1,6-5.54,9,9,0,0,1,5.68.45,5.61,5.61,0,0,1,.87.47.24.24,0,0,0,.39,0,1.91,1.91,0,0,1,.38-.37.49.49,0,0,1,.8.34.91.91,0,0,1,0,.17c0,1.27,0,2.54.07,3.8,0,.62-.32.76-.89.7-.25,0-.35-.24-.42-.46a6,6,0,0,0-1.16-2.26A4.68,4.68,0,0,0,56,12.78,5,5,0,0,0,51.72,16a8.23,8.23,0,0,0,.65,7.92,4.47,4.47,0,0,0,3.85,2.11,7.5,7.5,0,0,0,3.18-.48,1.07,1.07,0,0,0,.73-1.1c0-.78,0-1.56,0-2.35,0-.43-.08-.49-.52-.5-.28,0-.57,0-.86,0s-.48-.16-.49-.53c0-.89,0-1,.92-.91,1.12.06,2.25,0,3.37,0,.39,0,.78-.05,1.16-.05s.62.14.63.6v.33a.48.48,0,0,1-.49.52c-.25,0-.51,0-.76,0a.29.29,0,0,0-.35.33c0,1.15-.07,2.3,0,3.44,0,.36-.08.56-.47.75a12.07,12.07,0,0,1-4.14,1.31A10.75,10.75,0,0,1,53.41,27a7.26,7.26,0,0,1-5-6c-.13-.65-.1-1.32-.18-2Z" transform="translate(-8.62 -5.24)"/><path d="M147.92,10.94a.82.82,0,0,1,.47.63q1.77,5.36,3.53,10.69c.3.91.65,1.81,1,2.71a1.27,1.27,0,0,0,1.37.87c.13,0,.27,0,.4,0,.44,0,.59.16.6.61v.23c0,.45-.16.6-.6.59l-3,0-2.35,0c-.42,0-.58-.15-.59-.57a2.44,2.44,0,0,1,0-.27c0-.43.16-.58.58-.59h.47c.32,0,.39-.1.32-.42s-.19-.72-.31-1.08c-.27-.9-.57-1.79-.84-2.69a.37.37,0,0,0-.41-.29h-4.14a.34.34,0,0,0-.38.23c-.43,1.18-.88,2.36-1.25,3.56-.19.63-.14.68.52.68.27,0,.53,0,.8,0a.48.48,0,0,1,.5.51c0,.14,0,.28,0,.43,0,.34-.18.5-.52.49-1.54,0-3.07,0-4.61,0-.34,0-.49-.14-.52-.47a3.08,3.08,0,0,1,0-.43.51.51,0,0,1,.55-.53,2.78,2.78,0,0,1,.5,0,.92.92,0,0,0,1.05-.66c.42-1.06.86-2.11,1.26-3.17,1-2.71,2-5.42,3-8.13a1,1,0,0,0,0-1,.4.4,0,0,1,.24-.6,5.91,5.91,0,0,0,2.11-1.33Zm-1.25,3.61a.62.62,0,0,0-.1.14c-.61,1.65-1.21,3.3-1.82,4.94-.09.27,0,.34.25.33,1,0,2,0,3.05,0,.29,0,.36-.07.26-.36-.43-1.29-.84-2.59-1.25-3.88Z" transform="translate(-8.62 -5.24)"/><path d="M121.6,10.94a1,1,0,0,1,.43.6c1.39,4.1,2.64,8.25,4.1,12.32.14.38.28.75.43,1.11a1.3,1.3,0,0,0,1.32.87H128c.86,0,.93.07.91.89,0,.41-.15.55-.58.54l-3,0-2.38,0c-.41,0-.56-.13-.6-.54a2.36,2.36,0,0,1,0-.46.45.45,0,0,1,.46-.43h.5c.37,0,.45-.09.37-.46s-.17-.65-.26-1c-.29-.91-.58-1.81-.86-2.72a.4.4,0,0,0-.44-.34q-2.06,0-4.11,0a.37.37,0,0,0-.41.28c-.4,1.15-.81,2.29-1.22,3.44,0,0,0,.06,0,.1-.17.56-.09.66.5.66.26,0,.53,0,.79,0s.5.17.51.52c0,.12,0,.24,0,.36,0,.42-.15.56-.57.55-1.51,0-3,0-4.51,0-.41,0-.53-.12-.54-.53a1.34,1.34,0,0,1,0-.2c0-.58.11-.7.69-.7,1.08,0,1.15-.06,1.56-1.06,1.47-3.65,2.8-7.37,4.18-11.06a.76.76,0,0,0,0-.78.43.43,0,0,1,.23-.66,5.09,5.09,0,0,0,1.94-1.23,1,1,0,0,1,.2-.11Zm-1.31,3.53-.79,2.14c-.37,1-.73,2-1.1,3-.07.19-.12.35.18.34h3.21c.2,0,.25-.08.19-.27-.12-.34-.22-.69-.33-1C121.21,17.29,120.77,15.93,120.29,14.47Z" transform="translate(-8.62 -5.24)"/><path d="M140.82,10.94a1,1,0,0,1,.28.6c.19,1.21.39,2.43.59,3.65.06.38-.05.55-.39.66-.51.15-.66.1-.84-.29s-.36-.74-.51-1.12A2,2,0,0,0,138,13.15c-.77,0-1.54-.08-2.32-.08-.26,0-.36.07-.36.36q0,5.82,0,11.66a2.6,2.6,0,0,0,.05.39.37.37,0,0,0,.42.36c.39,0,.77,0,1.16,0s.61.14.62.61v.2c0,.51-.12.63-.62.62l-3.94,0-2,0c-.46,0-.6-.17-.61-.7s.14-.72.59-.73.84,0,1.26,0,.45-.11.46-.46c.06-4,.07-8,.06-12,0-.2,0-.32-.27-.32a26.5,26.5,0,0,0-2.67.12,1.9,1.9,0,0,0-1.43.91,10,10,0,0,0-.73,1.37c-.2.42-.41.49-1,.29-.35-.13-.42-.28-.31-.71l1-3.62a1.37,1.37,0,0,1,.26-.49h.53a2.26,2.26,0,0,0,1.1.58c1,.05,1.89.12,2.84.13,1.92,0,3.84,0,5.76-.05a4,4,0,0,0,2.5-.66Z" transform="translate(-8.62 -5.24)"/><path d="M193.74,36.4a4.15,4.15,0,0,1-1.1-.35,2.59,2.59,0,0,1-1.33-1.92,3.25,3.25,0,0,1,.91-3.1A3,3,0,0,1,196,31a1.44,1.44,0,0,1,.28.33c.16.25.44.56.27.79s-.56.06-.85.07c-.12,0-.17-.08-.22-.17a1.73,1.73,0,0,0-3,.11,2.5,2.5,0,0,0,0,2.47,1.93,1.93,0,0,0,2.75.53,1.44,1.44,0,0,0,.39-.49c.31-.64.22-.79-.46-.79h-.77c-.28,0-.28-.19-.27-.38s-.05-.43.26-.43h2.16c.23,0,.26.15.26.33,0,1.26-.39,2.66-2.26,3Z" transform="translate(-8.62 -5.24)"/><path d="M61.83,36.4a2.77,2.77,0,0,1-2.14-1.61,3.37,3.37,0,0,1,.14-3.09A2.87,2.87,0,0,1,63,30.43a2.78,2.78,0,0,1,2.17,2.32,3.76,3.76,0,0,1,0,1.38,2.7,2.7,0,0,1-2.19,2.22l-.19,0Zm2.36-3a2.23,2.23,0,0,0,0-.26,1.86,1.86,0,0,0-1.81-1.84,1.84,1.84,0,0,0-1.94,1.65,3.09,3.09,0,0,0,0,1.05,1.8,1.8,0,0,0,1.67,1.56,1.78,1.78,0,0,0,2-1.31A2.34,2.34,0,0,0,64.19,33.35Z" transform="translate(-8.62 -5.24)"/><path d="M112.07,36.4a2.74,2.74,0,0,1-2.13-1.61,3.37,3.37,0,0,1,.14-3.09,2.87,2.87,0,0,1,3.16-1.27,2.78,2.78,0,0,1,2.16,2.32,3.56,3.56,0,0,1,0,1.38,2.72,2.72,0,0,1-2.19,2.22l-.19,0Zm2.37-3.07s0-.16,0-.27a1.88,1.88,0,0,0-3.75-.16,3.36,3.36,0,0,0,0,1.05,1.87,1.87,0,0,0,3.64.25A2.37,2.37,0,0,0,114.44,33.33Z" transform="translate(-8.62 -5.24)"/><path d="M177.17,36.4A2.77,2.77,0,0,1,175,34.79a3.37,3.37,0,0,1,.14-3.09,2.87,2.87,0,0,1,3.16-1.27,2.78,2.78,0,0,1,2.17,2.32,3.55,3.55,0,0,1,0,1.38,2.7,2.7,0,0,1-2.19,2.22l-.19,0Zm2.36-3a2.57,2.57,0,0,0,0-.28,1.88,1.88,0,0,0-3.75-.18,3.18,3.18,0,0,0,0,1.11,1.88,1.88,0,0,0,3.66.12A2.38,2.38,0,0,0,179.53,33.35Z" transform="translate(-8.62 -5.24)"/><path d="M187.44,36.4a2.74,2.74,0,0,1-2.13-1.61,3.37,3.37,0,0,1,.14-3.09,2.87,2.87,0,0,1,3.16-1.27,2.78,2.78,0,0,1,2.16,2.32,3.76,3.76,0,0,1,0,1.38,2.72,2.72,0,0,1-2.19,2.22l-.19,0Zm2.37-3c0-.06,0-.17,0-.28a1.88,1.88,0,0,0-3.75-.18,3.18,3.18,0,0,0,0,1.11,1.8,1.8,0,0,0,1.75,1.52,1.78,1.78,0,0,0,1.9-1.4A2.37,2.37,0,0,0,189.81,33.35Z" transform="translate(-8.62 -5.24)"/><path d="M205.47,36.4a2.29,2.29,0,0,1-1.66-1.08,1.88,1.88,0,0,1-.23-.69c0-.06,0-.13,0-.19s.83,0,.9.15a1.49,1.49,0,0,0,2,.85.84.84,0,0,0,.59-.83c0-.4-.23-.62-.69-.72s-.87-.16-1.3-.26a1.61,1.61,0,0,1-1.32-1.39,1.58,1.58,0,0,1,1.1-1.7,2.44,2.44,0,0,1,2.23.17,1.73,1.73,0,0,1,.8,1.24c0,.17,0,.28-.21.28h-.46c-.16,0-.23-.07-.29-.22a1.26,1.26,0,0,0-1.9-.58.69.69,0,0,0-.34.67.67.67,0,0,0,.49.61,10.62,10.62,0,0,0,1.36.29A1.6,1.6,0,0,1,208,34.27a1.68,1.68,0,0,1-1.11,1.94c-.21.08-.42.12-.63.19Z" transform="translate(-8.62 -5.24)"/><path d="M123.54,36.4a2.29,2.29,0,0,1-1.66-1.08,1.88,1.88,0,0,1-.23-.69c0-.06,0-.13,0-.19s.83,0,.9.15a1.49,1.49,0,0,0,2,.85.84.84,0,0,0,.59-.83c0-.4-.23-.62-.69-.72s-.87-.16-1.3-.26a1.6,1.6,0,0,1-1.32-1.39,1.58,1.58,0,0,1,1.1-1.7,2.45,2.45,0,0,1,2.23.17A1.76,1.76,0,0,1,126,32c0,.17,0,.28-.21.28h-.47c-.15,0-.22-.07-.28-.22a1.27,1.27,0,0,0-1.91-.58.7.7,0,0,0-.33.67.67.67,0,0,0,.49.61,12.65,12.65,0,0,0,1.36.29c.69.16,1.28.45,1.43,1.23a1.67,1.67,0,0,1-1.1,2c-.21.08-.42.12-.64.19Z" transform="translate(-8.62 -5.24)"/><path d="M160.06,36.4a2.77,2.77,0,0,1-1.84-1.13,3.65,3.65,0,0,1,.08-3.88,2.88,2.88,0,0,1,4.15-.29,2.16,2.16,0,0,1,.52.95c.06.2,0,.3-.22.3h-.56a.28.28,0,0,1-.29-.22,1.29,1.29,0,0,0-1.31-.87,1.56,1.56,0,0,0-1.53.75,2.66,2.66,0,0,0-.05,2.66,1.58,1.58,0,0,0,1.6.84,1.29,1.29,0,0,0,1.29-.85.29.29,0,0,1,.3-.21h.3c.57,0,.61,0,.37.6a2.17,2.17,0,0,1-1.43,1.23l-.45.12Z" transform="translate(-8.62 -5.24)"/><path d="M55.93,36.4a2.8,2.8,0,0,1-1.85-1.13,3.63,3.63,0,0,1,.09-3.88,2.87,2.87,0,0,1,4.14-.29,2.16,2.16,0,0,1,.52.95c.06.2,0,.3-.22.3h-.56a.28.28,0,0,1-.29-.22,1.29,1.29,0,0,0-1.31-.87,1.54,1.54,0,0,0-1.52.75,2.66,2.66,0,0,0-.06,2.66,1.58,1.58,0,0,0,1.6.84,1.28,1.28,0,0,0,1.29-.85.29.29,0,0,1,.3-.21h.3c.58,0,.61,0,.37.6a2.17,2.17,0,0,1-1.43,1.23l-.45.12Z" transform="translate(-8.62 -5.24)"/><path d="M94.9,36.4a2.75,2.75,0,0,1-1.84-1.13,3.63,3.63,0,0,1,.08-3.88,2.88,2.88,0,0,1,4.15-.29,2.16,2.16,0,0,1,.52.95c.06.2,0,.3-.22.3H97a.27.27,0,0,1-.29-.22,1.29,1.29,0,0,0-1.31-.87A1.56,1.56,0,0,0,93.9,32a2.66,2.66,0,0,0-.05,2.66,1.58,1.58,0,0,0,1.6.84,1.29,1.29,0,0,0,1.29-.85.29.29,0,0,1,.3-.21h.3c.57,0,.61,0,.37.6a2.17,2.17,0,0,1-1.43,1.23l-.45.12Z" transform="translate(-8.62 -5.24)"/><path d="M81.65,36.4a2.18,2.18,0,0,1-1.59-1.09,2.67,2.67,0,0,1-.26-1.21c0-1.1,0-2.19,0-3.28,0-.26.09-.35.35-.35.66,0,.66,0,.66.66,0,1,0,2,0,3a1.23,1.23,0,0,0,1.67,1.3,1.18,1.18,0,0,0,.87-1.28c0-1.11,0-2.21,0-3.31,0-.14-.06-.34.14-.36a1.2,1.2,0,0,1,.77,0c.08,0,.06.16.06.25,0,1.19,0,2.38,0,3.57a2,2,0,0,1-1.52,1.94l-.35.1Z" transform="translate(-8.62 -5.24)"/><path d="M220,27.27h-5.3c-1.49,0-3-.05-4.46,0-.24,0-.34-.15-.45-.29a16.26,16.26,0,0,1-1.53-2.4,25.4,25.4,0,0,0-2-3.05,2.31,2.31,0,0,0-2-1.05c-.26,0-.37.07-.37.36,0,1.41,0,2.83,0,4.24a2.11,2.11,0,0,0,0,.26c.08.46.12.49.58.49.31,0,.62,0,.93,0s.49.17.51.52a2.16,2.16,0,0,1,0,.36c0,.41-.16.56-.58.55-1.76,0-3.53,0-5.3,0-.4,0-.53-.13-.56-.52a3.69,3.69,0,0,1,0-.47.44.44,0,0,1,.48-.44h.83c.38,0,.44-.09.47-.48.08-1.37,0-2.74.05-4.11v-7c0-.13,0-.27,0-.4,0-.67-.14-.79-.8-.79h-.1c-.81,0-.9-.08-.88-.89,0-.44.17-.61.61-.58,1.55.11,3.09.07,4.64,0a13.63,13.63,0,0,1,2.71.08,4.89,4.89,0,0,1,3.34,1.93c1.16,1.67.85,5-1.83,6-.25.09-.5.19-.75.27s-.2.08-.08.22c1.14,1.35,2,2.88,3.09,4.3.2.28.42.54.63.81a1.58,1.58,0,0,0,1.24.61c.72.06,1.45,0,2.17,0,.39,0,.47-.08.47-.47,0-3.13.1-6.27.06-9.41,0-.8,0-1.61-.07-2.41,0-.39-.08-.46-.47-.47h-.9a.51.51,0,0,1-.54-.54,2.43,2.43,0,0,1,0-.27c0-.53.15-.69.66-.66,1.55.11,3.1,0,4.64.05.31,0,.62-.05.93-.05s.59.18.61.64-.12.8-.57.82-.81,0-1.22,0-.44.11-.44.43c0,3.29-.1,6.58-.06,9.87,0,.7,0,1.39.05,2.09,0,.24.09.32.33.33,1.49,0,3,.08,4.47,0a1.36,1.36,0,0,0,.89-.44,7.74,7.74,0,0,0,1.63-2.48c.05-.1.09-.2.13-.3.18-.4.35-.49.72-.36s.56.33.45.76c-.32,1.28-.63,2.57-.94,3.86-.12.47-.11.46-.6.46ZM203.88,16.1c0,.88,0,1.77,0,2.65,0,.33.11.43.42.41s.6,0,.89,0A4,4,0,0,0,208,17.82a2.8,2.8,0,0,0-.88-4.44,5.72,5.72,0,0,0-2.74-.44c-.43,0-.51.1-.51.55C203.87,14.36,203.88,15.23,203.88,16.1Z" transform="translate(-8.62 -5.24)"/><path d="M171.07,16.22l-1.2,3.38q-1.27,3.58-2.57,7.17a3.76,3.76,0,0,1-.2.46.67.67,0,0,1-1.28-.11c-.24-.64-.46-1.29-.69-1.93l-3.93-11.3c0-.12-.09-.25-.14-.37a.6.6,0,0,0-.68-.45h-.3c-.25,0-.54,0-.67-.24a1.2,1.2,0,0,1,0-1c.1-.22.33-.24.55-.23,1.21.1,2.42.05,3.64.05.27,0,.55,0,.83-.05.57,0,.73.14.73.71s-.13.75-.72.76-.53.07-.38.53c.73,2.31,1.47,4.61,2.2,6.91.28.86.55,1.73.82,2.59.13,0,.11-.13.14-.19.9-2.67,1.82-5.33,2.65-8,.07-.23.13-.46.19-.7a.85.85,0,0,0-.85-1.12h0c-.91.06-.91-.24-.84-1.1,0-.28.26-.41.67-.36a16.66,16.66,0,0,0,1.73.05c1,0,2.09,0,3.14-.05.57,0,.71.1.71.68s-.09.78-.78.78c-.93,0-.94,0-.66.91q1.36,4.41,2.75,8.82a.39.39,0,0,0,.16.29c.14-.42.28-.82.42-1.22.85-2.57,1.73-5.13,2.4-7.75a3.2,3.2,0,0,0,.11-.69c0-.23-.1-.35-.33-.35h-.6a.49.49,0,0,1-.51-.5c0-.1,0-.2,0-.3,0-.52.19-.71.71-.66,1.05.08,2.1,0,3.15,0,.23,0,.46,0,.69-.05.43,0,.62.15.63.58a1.82,1.82,0,0,1,0,.33c0,.38-.17.54-.55.56-.16,0-.33,0-.49,0-.36.05-.48.33-.59.61l-1.92,5.19q-1.47,3.95-2.92,7.89a2.67,2.67,0,0,1-.28.56.62.62,0,0,1-1.08,0,2.38,2.38,0,0,1-.28-.63L171.2,16.58Z" transform="translate(-8.62 -5.24)"/><path d="M101.52,27.27H97.59c-.52,0-.65-.12-.66-.64s.12-.79.65-.79.82,0,1.23,0c.24,0,.37-.09.39-.34s0-.22,0-.33c.1-3.54.11-7.09.06-10.63,0-.37,0-.73,0-1.1s-.15-.37-.41-.36H97.65c-.48,0-.64-.16-.65-.63,0-.73.13-.87.87-.83,1.66.08,3.33.06,5,0a17.11,17.11,0,0,1,5,.45A7.09,7.09,0,0,1,113.21,19a8.42,8.42,0,0,1-1,4.43,7.31,7.31,0,0,1-5.94,3.8C104.71,27.36,103.15,27.23,101.52,27.27Zm.41-7.8c0,1.22,0,3.14,0,5.06,0,.77.3,1.16,1.06,1.31a5.66,5.66,0,0,0,5.42-1.5A6.89,6.89,0,0,0,110,17.15a5.39,5.39,0,0,0-2.56-3.33,8.36,8.36,0,0,0-4.89-.85c-.45,0-.57.2-.64.66a2.68,2.68,0,0,0,0,.4Z" transform="translate(-8.62 -5.24)"/><path d="M189.67,27.54a8.6,8.6,0,0,1-5-2,7.06,7.06,0,0,1-2.36-4.37,8.44,8.44,0,0,1,3.44-8.52,6.67,6.67,0,0,1,3.86-1.31,7.5,7.5,0,0,1,4.54,1.07,8.08,8.08,0,0,1,3.82,5.89A8,8,0,0,1,195,25.88,7.84,7.84,0,0,1,189.67,27.54Zm-4.77-8.49a10.24,10.24,0,0,0,.09,1.36,7,7,0,0,0,2.1,4.25,4.69,4.69,0,0,0,3,1.44,4.49,4.49,0,0,0,4.48-2.89,8.54,8.54,0,0,0,.6-4.73,7,7,0,0,0-2.82-4.82,4.17,4.17,0,0,0-5.78.58A7.13,7.13,0,0,0,184.9,19.05Z" transform="translate(-8.62 -5.24)"/><path d="M87.62,27.54a8.32,8.32,0,0,1-5.33-2.23,7.42,7.42,0,0,1-2.2-4.9,8.45,8.45,0,0,1,3.28-7.54,6.85,6.85,0,0,1,4.16-1.5,7.4,7.4,0,0,1,5.16,1.52,8.09,8.09,0,0,1,3.21,5.9,7.83,7.83,0,0,1-8.28,8.75Zm-4.79-8.48A7.3,7.3,0,0,0,83,20.74a6.75,6.75,0,0,0,2.68,4.45A4.3,4.3,0,0,0,88,26.1a4.39,4.39,0,0,0,4.41-2.63,8.31,8.31,0,0,0,.54-5.9,6.83,6.83,0,0,0-2.39-3.73,4.53,4.53,0,0,0-3.48-1,3.66,3.66,0,0,0-2.14,1A7,7,0,0,0,82.83,19.06Z" transform="translate(-8.62 -5.24)"/><path d="M71.52,27.27h-5.4c-.24,0-.52,0-.62-.25a1.29,1.29,0,0,1,0-1,.46.46,0,0,1,.44-.18h1.1c.38,0,.47-.1.47-.48v-9.7c0-.66,0-1.31-.06-2s-.11-.61-.63-.62H66c-.35,0-.49-.18-.5-.53,0-.86.07-1,.84-.93,1.48.09,3,0,4.44.05s3.23,0,4.84,0c.26,0,.53,0,.79,0a.55.55,0,0,1,.67.44c.34,1,.67,2.09,1,3.13.14.45.07.6-.36.82s-.5.15-.78-.22a22.19,22.19,0,0,0-1.6-1.89,2.62,2.62,0,0,0-1.9-.82c-1,0-1.94,0-2.91-.07-.29,0-.41.06-.41.38,0,1.58,0,3.16,0,4.74,0,.3.09.39.38.37.62,0,1.24,0,1.86-.08s.62-.17.78-.63a6.14,6.14,0,0,0,.19-1,.47.47,0,0,1,.51-.45h.33c.45,0,.61.2.58.64a25.36,25.36,0,0,0,.06,4.27.54.54,0,0,1-.53.68c-.67.1-.75,0-.89-.63,0-.24-.12-.47-.18-.7a.72.72,0,0,0-.77-.64c-.66-.05-1.32-.09-2-.08-.24,0-.33.07-.33.32,0,1.48,0,3,.08,4.44a1.09,1.09,0,0,0,1,1.18,10.72,10.72,0,0,0,3.53,0,2.63,2.63,0,0,0,1.76-1.07c.41-.55.85-1.07,1.23-1.65a.49.49,0,0,1,.67-.24c.5.22.67.43.55.8-.38,1.08-.77,2.16-1.18,3.24-.13.36-.45.44-.81.44Z" transform="translate(-8.62 -5.24)"/><path d="M222.63,32.48l-.9,2.08c-.21.48-.44,1-.63,1.46-.1.27-.3.27-.52.28a.45.45,0,0,1-.5-.29c-.44-1-.9-2.08-1.35-3.13l-.14-.3a.51.51,0,0,0-.06.37c0,1,0,2,0,2.95,0,.3-.1.43-.41.39h-.26c-.27,0-.34-.1-.34-.35V30.81c0-.24.08-.33.32-.34.82,0,.82,0,1.14.71l1.38,3.19.21.48c.13,0,.13-.13.16-.21.53-1.23,1.07-2.47,1.58-3.71a.61.61,0,0,1,.68-.46c.73,0,.66-.08.66.66v4.74c0,.14.07.35-.13.39a1.13,1.13,0,0,1-.77,0c-.11,0-.07-.2-.07-.31V32.49Z" transform="translate(-8.62 -5.24)"/><path d="M69,34.86c.55-1.28,1.09-2.55,1.64-3.82.08-.18.1-.46.3-.53a2.19,2.19,0,0,1,.92,0c.21,0,.15.22.15.35,0,1.42,0,2.85,0,4.27,0,.29,0,.58,0,.86s-.07.33-.31.32c-.78,0-.66.05-.66-.64,0-1,0-2.1,0-3.18-.12.06-.13.16-.16.24-.47,1.07-.94,2.14-1.39,3.23a.52.52,0,0,1-.57.36c-.31,0-.42-.14-.53-.39-.46-1.1-1-2.2-1.44-3.34a.49.49,0,0,0-.07.36v2.91c0,.44,0,.45-.44.45h-.2c-.27,0-.37-.08-.37-.36,0-.83,0-1.65,0-2.48s0-1.72,0-2.59c0-.3.1-.4.4-.39.9,0,.69-.12,1,.69.51,1.16,1,2.33,1.52,3.49A.25.25,0,0,0,69,34.86Z" transform="translate(-8.62 -5.24)"/><path d="M73.89,32.61v3.08c0,.57-.3.77-.86.59-.19-.06-.15-.23-.15-.36V32.05c0-.42,0-.84,0-1.26,0-.23.08-.31.31-.32.83,0,.83,0,1.16.73.53,1.21,1.05,2.43,1.57,3.64.14,0,.14-.12.17-.19.53-1.23,1.07-2.47,1.58-3.71a.61.61,0,0,1,.7-.47c.7,0,.64-.07.64.65,0,1.58,0,3.16,0,4.73,0,.32-.07.46-.42.45-.56,0-.56,0-.56-.57V32.47c-.12.06-.12.17-.16.25-.47,1.09-.95,2.17-1.4,3.26-.11.27-.27.31-.53.32a.49.49,0,0,1-.53-.33c-.44-1-.9-2.09-1.35-3.14A2.4,2.4,0,0,0,74,32.6Z" transform="translate(-8.62 -5.24)"/><path d="M173,34.63V30.92c0-.14-.07-.36.12-.41a1.25,1.25,0,0,1,.81,0c.09,0,.07.17.07.27,0,1.73,0,3.45,0,5.17,0,.24-.11.31-.34.33a1,1,0,0,1-1-.5c-.7-1.12-1.45-2.2-2.18-3.29l-.19-.27c-.1.13-.06.25-.06.37v3.14c0,.54,0,.54-.55.54h-.1c-.29,0-.36-.11-.36-.37,0-.79,0-1.59,0-2.38s0-1.79,0-2.69c0-.28.09-.37.38-.39a.93.93,0,0,1,.94.49c.72,1.14,1.48,2.25,2.23,3.37Z" transform="translate(-8.62 -5.24)"/><path d="M86.16,32.27v3.67c0,.25-.07.35-.34.36-.67,0-.67,0-.67-.66,0-1.58,0-3.16,0-4.74,0-.33.1-.43.43-.44a.86.86,0,0,1,.86.46c.79,1.22,1.61,2.43,2.43,3.66a.42.42,0,0,0,0-.3c0-1.14,0-2.28,0-3.41,0-.31.09-.43.4-.4a.88.88,0,0,0,.23,0c.3,0,.38.11.38.39,0,1.67,0,3.35,0,5,0,.29-.08.4-.39.41a.92.92,0,0,1-.94-.49c-.7-1.11-1.45-2.2-2.18-3.29l-.18-.27Z" transform="translate(-8.62 -5.24)"/><path d="M135.94,32.27v.81c0,.94,0,1.88,0,2.82,0,.3-.1.4-.41.4-.6,0-.61,0-.61-.62,0-1.59,0-3.18,0-4.77,0-.33.09-.43.43-.45a.88.88,0,0,1,.88.48c.78,1.22,1.59,2.41,2.44,3.68,0-.16,0-.25,0-.33,0-1.13,0-2.26,0-3.38,0-.33.08-.48.43-.44a1.82,1.82,0,0,0,.33,0c.17,0,.24.08.24.24a1.69,1.69,0,0,1,0,.23v4.87c0,.47,0,.44-.45.48a.82.82,0,0,1-.85-.46c-.78-1.21-1.59-2.39-2.38-3.59Z" transform="translate(-8.62 -5.24)"/><path d="M119.94,34.56V33.47c0-.87,0-1.73,0-2.59,0-.32.11-.42.42-.41.59,0,.59,0,.59.6v4.78c0,.43,0,.41-.44.45a.84.84,0,0,1-.86-.46c-.71-1.11-1.46-2.21-2.2-3.31-.06-.09-.1-.21-.23-.27-.07.11,0,.24,0,.35,0,1.09,0,2.17,0,3.25,0,.33-.09.48-.43.43h-.3c-.2,0-.28-.08-.28-.27v-.2c0-1.63,0-3.25,0-4.87,0-.47,0-.45.45-.48a.79.79,0,0,1,.83.44c.73,1.14,1.49,2.26,2.25,3.39C119.77,34.39,119.8,34.5,119.94,34.56Z" transform="translate(-8.62 -5.24)"/><path d="M235.75,33.38V30.93c0-.45,0-.45.47-.45s1.1,0,1.65,0a2.6,2.6,0,0,1,2.81,2.69,4,4,0,0,1-.14,1.25,2.48,2.48,0,0,1-2.41,1.86c-.69,0-1.37,0-2.06,0-.24,0-.32-.09-.32-.33Zm1,0c0,.57,0,1.13,0,1.69,0,.33.11.43.42.41s.53,0,.79,0A1.62,1.62,0,0,0,239.61,34a3.43,3.43,0,0,0,0-1.15,1.6,1.6,0,0,0-1.51-1.54,8.69,8.69,0,0,0-1,0c-.29,0-.37.11-.36.37C236.76,32.24,236.75,32.8,236.75,33.36Z" transform="translate(-8.62 -5.24)"/><path d="M140.63,33.39c0-.84,0-1.68,0-2.51,0-.3.08-.42.39-.41.58,0,1.15,0,1.73,0a2.59,2.59,0,0,1,2.81,2.68,3.63,3.63,0,0,1-.09,1.09,2.49,2.49,0,0,1-2.48,2c-.67,0-1.34,0-2,0-.26,0-.34-.11-.34-.36C140.63,35.09,140.63,34.24,140.63,33.39Zm1.77,2.06h.43A1.62,1.62,0,0,0,144.49,34a3.18,3.18,0,0,0,0-1.15A1.59,1.59,0,0,0,143,31.34a7.13,7.13,0,0,0-.92,0c-.47,0-.47,0-.47.45v2.95C141.64,35.57,141.54,35.44,142.4,35.45Z" transform="translate(-8.62 -5.24)"/><path d="M168.42,33.39c0,.83,0,1.65,0,2.48,0,.31-.08.47-.41.42h-.2c-.33.05-.42-.11-.41-.42,0-.58,0-1.17,0-1.75,0-.28-.09-.38-.36-.37h-1.93c-.3,0-.37.12-.37.39,0,.6,0,1.2,0,1.79,0,.27-.09.37-.37.37-.64,0-.64,0-.64-.62V30.94c0-.46,0-.46.46-.46s.54,0,.55.54,0,1.06,0,1.59c0,.24.1.33.34.32h2c.27,0,.33-.11.33-.35,0-.58,0-1.15,0-1.73,0-.28.09-.38.39-.38.62,0,.62,0,.62.63Z" transform="translate(-8.62 -5.24)"/><path d="M102.63,36.29c-.33.1-.47-.11-.58-.44-.31-1-.32-1-1.32-1-.3,0-.6,0-.9,0a.43.43,0,0,0-.51.38c-.06.24-.17.46-.24.69a.42.42,0,0,1-.48.34c-.73,0-.69.06-.45-.62.58-1.6,1.18-3.19,1.75-4.79a.52.52,0,0,1,.59-.42c.74,0,.59-.1.85.6.58,1.56,1.15,3.13,1.72,4.69C103.26,36.29,103.26,36.29,102.63,36.29Zm-2-4.59-.78,2.2c-.06.17,0,.22.17.22h.85c.61,0,.62,0,.41-.57S100.83,32.37,100.59,31.7Z" transform="translate(-8.62 -5.24)"/><path d="M131.61,30.47c.66,0,.58-.06.78.5.61,1.64,1.2,3.27,1.8,4.91.15.39.13.41-.28.41-.68,0-.57.09-.81-.56-.37-1-.11-.81-1.14-.83h-1.13a.34.34,0,0,0-.39.27c-.07.26-.18.5-.25.75a.45.45,0,0,1-.52.38c-.7,0-.67.05-.43-.62.57-1.57,1.16-3.14,1.72-4.72C131.09,30.6,131.25,30.37,131.61,30.47Zm.11,1.35c-.06,0-.08,0-.09,0-.25.68-.49,1.37-.73,2-.06.17,0,.22.17.22h1.25c.15,0,.2-.06.15-.2C132.21,33.21,132,32.51,131.72,31.82Z" transform="translate(-8.62 -5.24)"/><path d="M155.49,30.48c.52,0,1,0,1.56,0,.26,0,.31.14.3.36s.05.46-.3.46c-.68,0-1.37,0-2.05,0-.34,0-.45.11-.43.44a6.59,6.59,0,0,1,0,.89c0,.25.09.33.33.32.6,0,1.21,0,1.82,0,.33,0,.37.16.37.43s-.06.41-.37.41c-.59,0-1.19,0-1.78,0-.3,0-.39.09-.38.38a8.18,8.18,0,0,1,0,1c0,.29.08.39.38.39.68,0,1.36,0,2.05,0,.32,0,.36.15.36.41s-.05.39-.35.39c-1,0-2,0-3.08,0-.25,0-.33-.08-.33-.33q0-2.58,0-5.16c0-.25.09-.33.33-.33Z" transform="translate(-8.62 -5.24)"/><path d="M199.41,33.36c0-.83,0-1.65,0-2.48,0-.29.06-.42.38-.41,1,0,2,0,3,0,.28,0,.36.12.35.38s0,.45-.36.45c-.68,0-1.37,0-2.05,0-.26,0-.39.07-.37.36a7.69,7.69,0,0,1,0,1c0,.27.1.34.35.33.6,0,1.19,0,1.79,0,.32,0,.39.14.39.42s-.07.43-.39.42c-.6,0-1.19,0-1.79,0-.25,0-.36.06-.35.33s0,.73,0,1.1.08.33.32.32c.7,0,1.4,0,2.09,0,.3,0,.38.13.37.4s-.06.4-.37.4c-1,0-2,0-3,0-.3,0-.38-.11-.37-.39C199.42,35.06,199.41,34.21,199.41,33.36Z" transform="translate(-8.62 -5.24)"/><path d="M231.3,33.36c0-.84,0-1.68,0-2.52,0-.27.08-.37.36-.37,1,0,2,0,3,0,.29,0,.36.13.36.38s0,.45-.37.45c-.68,0-1.37,0-2.05,0-.27,0-.38.08-.37.36a7.22,7.22,0,0,1,0,.93c0,.27.08.37.36.36.6,0,1.19,0,1.79,0,.33,0,.38.15.38.43s-.08.42-.39.41c-.61,0-1.21,0-1.82,0-.23,0-.32.07-.32.3,0,.39,0,.78,0,1.16,0,.22.08.29.29.29.71,0,1.41,0,2.12,0,.31,0,.37.14.37.4s-.07.4-.38.4c-1,0-2,0-3,0-.3,0-.37-.12-.37-.39C231.31,35.06,231.3,34.21,231.3,33.36Z" transform="translate(-8.62 -5.24)"/><path d="M150.75,30.48c.62,0,1.24,0,1.86,0,.28,0,.33.13.32.37s0,.46-.31.45-.66,0-1,0-.38.1-.38.39q0,2.09,0,4.17c0,.14.07.36-.12.41a1.25,1.25,0,0,1-.81,0c-.12-.06-.07-.24-.07-.37q0-2.07,0-4.14c0-.33-.09-.47-.43-.44s-.64,0-1,0-.28-.25-.29-.46,0-.36.3-.36C149.5,30.49,150.12,30.48,150.75,30.48Z" transform="translate(-8.62 -5.24)"/><path d="M104.57,33.79c0-.72,0-1.44,0-2.15,0-.27-.1-.36-.36-.35s-.66,0-1,0-.34-.19-.34-.43,0-.4.33-.4c1.24,0,2.47,0,3.71,0,.31,0,.33.16.33.39s0,.45-.33.44-.62,0-.93,0-.43.09-.42.41q0,2.06,0,4.11c0,.15.08.38-.11.44a1.19,1.19,0,0,1-.81,0c-.12,0-.09-.21-.09-.33Z" transform="translate(-8.62 -5.24)"/><path d="M227.93,33.75c0-.69,0-1.39,0-2.08,0-.3-.11-.4-.39-.38s-.64,0-1,0-.33-.19-.34-.43,0-.4.33-.4c1.24,0,2.48,0,3.71,0,.31,0,.33.16.33.4s0,.44-.33.43-.62,0-.93,0-.42.09-.42.41q0,2.07,0,4.14c0,.15.07.36-.11.41a1.25,1.25,0,0,1-.81,0c-.12-.05-.08-.22-.08-.33C227.93,35.19,227.93,34.47,227.93,33.75Z" transform="translate(-8.62 -5.24)"/><path d="M181.26,33.38c0-.83,0-1.66,0-2.49,0-.31.08-.46.4-.42h.1c.5,0,.5,0,.51.48v4.11c0,.44,0,.44.44.45.6,0,1.21,0,1.82,0,.3,0,.34.15.34.39s0,.4-.33.4c-1,0-2,0-2.95,0-.25,0-.33-.09-.33-.33C181.27,35.1,181.26,34.24,181.26,33.38Z" transform="translate(-8.62 -5.24)"/><path d="M211.29,33.37c0-.84,0-1.68,0-2.52,0-.29.1-.38.39-.38.62,0,.62,0,.62.63v3.95c0,.46,0,.46.49.47s1.19,0,1.79,0c.3,0,.33.16.33.4s-.05.39-.34.39c-1,0-1.95,0-2.92,0-.29,0-.36-.12-.35-.38C211.3,35.07,211.29,34.22,211.29,33.37Z" transform="translate(-8.62 -5.24)"/><path d="M108,33.35c0-.83,0-1.66,0-2.48,0-.31.1-.44.41-.4a.88.88,0,0,0,.23,0c.29,0,.38.1.38.39,0,1.68,0,3.37,0,5.06,0,.29-.1.38-.39.38-.62,0-.62,0-.62-.64Z" transform="translate(-8.62 -5.24)"/><path d="M91.86,33.38c0,.84,0,1.68,0,2.51,0,.3-.09.45-.4.4H91.4c-.55,0-.55,0-.55-.54,0-1.61,0-3.22,0-4.83,0-.14-.07-.36.11-.41a1.25,1.25,0,0,1,.81,0c.12,0,.08.22.08.33Z" transform="translate(-8.62 -5.24)"/><path d="M197.51,33.35c0-.83,0-1.66,0-2.48,0-.3.09-.44.4-.4a.67.67,0,0,0,.2,0c.32,0,.42.1.41.42,0,1.66,0,3.33,0,5,0,.32-.1.45-.42.41h-.23c-.27,0-.37-.09-.36-.36C197.52,35.07,197.51,34.21,197.51,33.35Z" transform="translate(-8.62 -5.24)"/><path d="M216.62,33.37c0,.84,0,1.68,0,2.52,0,.29-.07.42-.39.41-.62,0-.62,0-.62-.61V30.93c0-.45,0-.45.43-.45h.24c.26,0,.34.11.34.36C216.61,31.68,216.61,32.52,216.62,33.37Z" transform="translate(-8.62 -5.24)"/><path d="M224.56,33.35c0-.83,0-1.66,0-2.48,0-.3.1-.44.4-.4a.67.67,0,0,0,.2,0c.32,0,.42.1.42.42,0,1.66,0,3.33,0,5,0,.32-.1.45-.42.41h-.23c-.28,0-.37-.09-.37-.36C224.56,35.07,224.56,34.21,224.56,33.35Z" transform="translate(-8.62 -5.24)"/></svg>