<svg width="30" height="30" viewBox="0 0 30 30" fill="none" xmlns="http://www.w3.org/2000/svg">
<path d="M2.65957 19.6661L0.948635 8.54546C0.920805 8.36331 0.947827 8.17699 1.02626 8.01025C1.10469 7.8435 1.23098 7.70388 1.38904 7.60916C1.54711 7.51444 1.72979 7.46892 1.91381 7.47839C2.09784 7.48786 2.27488 7.5519 2.42239 7.66234L7.75301 11.6598C7.89152 11.7638 8.04977 11.8383 8.2181 11.879C8.38642 11.9197 8.56127 11.9256 8.73195 11.8964C8.90263 11.8671 9.06556 11.8034 9.21076 11.7091C9.35597 11.6147 9.4804 11.4917 9.57645 11.3476L14.0146 4.68765C14.1228 4.5258 14.2692 4.39313 14.4409 4.30138C14.6126 4.20962 14.8043 4.16162 14.9989 4.16162C15.1936 4.16162 15.3853 4.20962 15.557 4.30138C15.7287 4.39313 15.8751 4.5258 15.9833 4.68765L20.4214 11.3439C20.5175 11.488 20.6419 11.611 20.7871 11.7053C20.9323 11.7997 21.0953 11.8634 21.2659 11.8926C21.4366 11.9218 21.6115 11.9159 21.7798 11.8753C21.9481 11.8346 22.1064 11.76 22.2449 11.6561L27.5755 7.65859C27.723 7.54814 27.9001 7.48411 28.0841 7.47464C28.2681 7.46517 28.4508 7.51069 28.6089 7.60541C28.7669 7.70013 28.8932 7.83975 28.9716 8.0065C29.0501 8.17324 29.0771 8.35956 29.0493 8.54171L27.3383 19.6623L2.65957 19.6661ZM2.65957 21.723H27.3402V24.5495C27.3402 24.7186 27.3069 24.8859 27.2422 25.0421C27.1775 25.1983 27.0827 25.3402 26.9632 25.4597C26.8437 25.5792 26.7018 25.674 26.5456 25.7387C26.3894 25.8034 26.222 25.8367 26.053 25.8367H3.94676C3.77772 25.8367 3.61034 25.8034 3.45417 25.7387C3.29801 25.674 3.15611 25.5792 3.03658 25.4597C2.79519 25.2183 2.65957 24.8909 2.65957 24.5495V21.723Z" fill="white"/>
</svg>
